<?xml version="1.0" standalone="no"?>
<!DOCTYPE svg PUBLIC "-//W3C//DTD SVG 20010904//EN"
 "http://www.w3.org/TR/2001/REC-SVG-20010904/DTD/svg10.dtd">
<svg version="1.0" xmlns="http://www.w3.org/2000/svg"
 width="2332.000000pt" height="2332.000000pt" viewBox="0 0 2332.000000 2332.000000"
 preserveAspectRatio="xMidYMid meet">

<g transform="translate(0.000000,2332.000000) scale(0.100000,-0.100000)"
fill="#44a4d6" stroke="none">
<path d="M8140 23309 c-140 -11 -343 -51 -498 -98 -185 -56 -542 -189 -542
-203 0 -3 21 -21 47 -40 l48 -34 108 43 c394 155 707 223 1025 223 319 -1 596
-69 788 -196 82 -54 192 -167 237 -244 64 -110 90 -206 91 -340 1 -136 -11
-194 -66 -310 -47 -98 -130 -189 -203 -221 -205 -91 -479 -47 -626 100 -64 65
-94 121 -114 217 -18 86 -18 131 -1 216 19 86 59 167 106 213 l37 36 61 -20
c137 -47 252 -10 252 80 0 69 -85 116 -192 106 -165 -15 -322 -171 -373 -372
-19 -75 -19 -211 0 -294 48 -201 205 -361 413 -417 87 -24 262 -29 350 -10
171 36 314 149 390 307 55 113 72 183 79 314 13 271 -96 512 -311 681 -189
150 -450 240 -769 264 -147 11 -185 11 -337 -1z"/>
<path d="M14823 23310 c-213 -18 -400 -67 -568 -150 -329 -162 -508 -453 -492
-795 10 -200 71 -351 191 -469 125 -125 260 -172 461 -163 190 9 316 59 425
167 222 220 230 602 16 816 -73 73 -152 114 -234 121 -175 16 -265 -124 -125
-196 34 -17 113 -13 183 10 l63 20 37 -36 c47 -46 87 -127 106 -213 17 -85 17
-130 -1 -216 -20 -96 -50 -152 -114 -217 -120 -120 -326 -174 -516 -134 -149
32 -243 109 -314 259 -54 112 -66 171 -65 306 1 134 27 230 91 340 45 77 155
190 237 244 301 199 816 252 1306 135 141 -33 346 -99 507 -162 l108 -43 48
34 c26 19 47 37 47 40 0 23 -555 215 -725 252 -221 47 -475 66 -672 50z"/>
<path d="M3312 23274 c-141 -38 -242 -134 -242 -230 0 -80 82 -122 144 -73 28
22 65 87 85 151 7 20 20 39 29 43 33 13 168 17 226 6 131 -24 217 -85 268
-188 27 -55 33 -80 36 -153 19 -401 -375 -795 -978 -975 -211 -63 -519 -91
-713 -65 -175 24 -350 89 -468 176 -75 55 -173 166 -208 238 -85 172 -94 392
-22 510 67 108 210 176 371 176 122 0 133 -5 164 -69 67 -141 162 -198 261
-157 35 15 65 59 65 97 0 39 -40 108 -83 143 -101 82 -230 120 -402 120 -189
-1 -316 -45 -426 -151 -131 -125 -173 -327 -115 -556 152 -597 806 -819 1731
-586 327 83 483 148 1285 544 785 387 1025 494 1360 608 305 104 523 142 765
134 240 -9 374 -48 540 -160 210 -141 349 -332 390 -536 57 -278 -100 -554
-369 -649 -58 -21 -91 -25 -176 -26 -127 -1 -207 21 -321 88 l-77 45 5 104 c5
86 3 110 -12 141 -47 98 -190 86 -237 -21 -61 -138 54 -295 308 -421 125 -62
190 -77 334 -76 107 0 136 4 205 27 110 36 196 89 280 172 185 182 255 437
190 690 -23 92 -107 251 -179 342 -334 420 -980 580 -1726 427 -154 -31 -376
-104 -563 -185 -292 -126 -844 -415 -1184 -620 l-31 -20 44 78 c70 123 96 215
101 363 4 110 2 133 -17 189 -70 208 -246 322 -495 320 -49 0 -114 -7 -143
-15z"/>
<path d="M19708 23275 c-168 -42 -288 -151 -338 -304 -20 -62 -22 -85 -18
-193 6 -146 32 -239 102 -361 l44 -78 -31 20 c-217 131 -550 313 -822 449
-603 302 -927 397 -1395 409 -158 4 -234 1 -330 -11 -407 -54 -723 -213 -926
-469 -72 -91 -156 -250 -179 -342 -65 -253 5 -508 190 -690 84 -83 170 -136
280 -172 69 -23 98 -27 205 -27 144 -1 209 14 334 76 254 126 369 283 308 421
-47 107 -190 119 -237 21 -15 -31 -17 -55 -12 -141 l5 -104 -77 -45 c-114 -67
-194 -89 -321 -88 -123 1 -210 26 -303 88 -150 100 -256 295 -257 474 -1 183
117 413 286 558 206 177 373 241 659 251 303 11 595 -56 1055 -242 255 -103
425 -182 1080 -505 791 -390 949 -457 1275 -539 933 -235 1589 -7 1735 602 52
217 8 419 -119 540 -110 106 -237 150 -426 151 -172 0 -301 -38 -402 -120 -43
-35 -83 -104 -83 -143 0 -38 30 -82 65 -97 99 -41 194 16 261 157 31 64 42 69
164 69 161 0 304 -68 371 -176 72 -118 63 -338 -22 -510 -35 -72 -133 -183
-208 -238 -118 -87 -293 -152 -468 -176 -124 -17 -375 -8 -518 19 -652 122
-1147 528 -1172 961 -11 194 62 318 226 381 44 17 79 22 161 23 137 1 155 -4
171 -51 20 -65 57 -130 85 -152 62 -49 144 -7 144 73 0 83 -81 172 -199 217
-73 28 -257 36 -343 14z"/>
<path d="M6495 22750 c-317 -141 -924 -376 -1340 -517 -234 -80 -317 -129
-317 -189 0 -60 77 -82 160 -44 30 14 46 28 53 50 6 16 12 30 14 30 10 0 708
248 830 295 321 123 1057 444 1049 457 -4 6 -112 69 -116 67 -2 -1 -151 -67
-333 -149z"/>
<path d="M16437 22871 c-27 -16 -53 -33 -57 -37 -13 -14 683 -320 1045 -459
122 -47 820 -295 830 -295 2 0 8 -14 14 -30 7 -22 23 -36 53 -50 83 -38 161
-16 161 44 0 60 -84 109 -322 190 -401 137 -1020 375 -1331 513 -179 80 -329
146 -335 148 -5 2 -32 -9 -58 -24z"/>
<path d="M1530 22410 l0 -50 1038 0 1037 1 38 49 38 50 -1075 0 -1076 0 0 -50z"/>
<path d="M4750 22410 l-95 -49 327 0 327 -1 123 46 c67 25 125 47 127 50 2 2
-157 4 -355 3 l-359 0 -95 -49z"/>
<path d="M6170 22410 l-115 -49 618 -1 c396 0 617 4 617 10 0 5 -7 28 -16 50
l-16 40 -487 -1 -486 -1 -115 -48z"/>
<path d="M7563 22446 c3 -8 9 -31 13 -50 l6 -36 329 0 329 0 0 28 c0 15 3 37
6 50 l6 22 -347 0 c-297 0 -346 -2 -342 -14z"/>
<path d="M8506 22429 c-15 -76 -57 -69 428 -69 480 0 446 -5 446 66 l0 34
-434 0 -433 0 -7 -31z"/>
<path d="M9660 22410 l0 -50 2000 0 2000 0 0 50 0 50 -2000 0 -2000 0 0 -50z"/>
<path d="M13940 22426 c0 -71 -34 -66 446 -66 485 0 443 -7 428 69 l-6 31
-434 0 -434 0 0 -34z"/>
<path d="M15074 22438 c3 -13 6 -35 6 -50 l0 -28 329 0 329 0 6 36 c4 19 10
42 13 50 4 12 -45 14 -342 14 l-347 0 6 -22z"/>
<path d="M16046 22420 c-9 -22 -16 -45 -16 -50 0 -6 221 -10 618 -10 l617 1
-119 49 -119 50 -482 0 -483 0 -16 -40z"/>
<path d="M17761 22456 c2 -3 60 -25 127 -50 l123 -46 327 1 327 0 -95 49 -95
49 -359 0 c-198 1 -357 -1 -355 -3z"/>
<path d="M19677 22410 l38 -49 1038 -1 1037 0 0 50 0 50 -1076 0 -1075 0 38
-50z"/>
<path d="M663 22026 c-168 -41 -297 -176 -349 -367 -26 -97 -24 -281 4 -382
27 -93 53 -147 98 -204 35 -43 104 -83 143 -83 38 0 82 30 97 65 41 99 -16
194 -157 261 -64 31 -69 42 -69 164 0 161 68 304 176 371 118 72 338 63 510
-22 72 -35 183 -133 238 -208 53 -71 111 -194 139 -291 39 -133 51 -250 44
-427 -10 -289 -73 -533 -204 -797 -193 -388 -483 -626 -783 -643 -194 -11
-318 62 -381 226 -17 44 -22 79 -23 161 -1 137 4 155 51 171 65 20 130 57 152
85 49 62 7 144 -73 144 -83 0 -172 -81 -217 -199 -30 -77 -37 -240 -15 -334
41 -175 148 -296 305 -347 62 -20 85 -22 193 -18 146 6 239 32 361 102 l78 44
-20 -31 c-131 -217 -313 -550 -449 -822 -302 -603 -397 -927 -409 -1395 -4
-158 -1 -234 11 -330 54 -407 213 -723 469 -926 91 -72 250 -156 342 -179 253
-65 508 5 690 190 83 84 136 170 172 280 23 69 27 98 27 205 1 144 -14 209
-76 334 -126 254 -283 369 -421 308 -107 -47 -119 -190 -21 -237 31 -15 55
-17 141 -12 l104 5 45 -77 c67 -114 89 -194 88 -321 -1 -85 -5 -118 -26 -176
-45 -128 -128 -230 -243 -299 -305 -182 -693 -50 -942 320 -112 166 -151 300
-160 540 -8 242 30 460 134 765 114 335 221 575 608 1360 172 349 338 695 369
768 291 690 347 1389 143 1797 -120 240 -312 393 -570 455 -94 23 -243 25
-324 6z"/>
<path d="M22344 22025 c-183 -40 -362 -149 -473 -289 -249 -312 -298 -823
-140 -1451 81 -321 167 -526 519 -1235 464 -936 611 -1279 703 -1647 56 -221
70 -341 64 -528 -9 -240 -48 -374 -160 -540 -141 -210 -332 -349 -536 -390
-278 -57 -554 100 -649 369 -21 58 -25 91 -26 176 -1 127 21 207 88 321 l45
77 104 -5 c86 -5 110 -3 141 12 98 47 86 190 -21 237 -137 61 -293 -53 -422
-308 -60 -121 -75 -188 -75 -334 0 -108 4 -136 27 -205 37 -111 90 -197 172
-280 183 -185 437 -255 690 -190 92 23 251 107 342 179 255 203 415 519 469
926 12 96 15 172 11 330 -12 468 -107 789 -409 1395 -136 271 -318 604 -449
822 l-20 31 78 -44 c123 -70 215 -96 363 -101 110 -4 133 -2 189 17 162 54
266 172 307 347 22 94 15 257 -15 334 -45 118 -134 199 -217 199 -80 0 -122
-82 -73 -144 22 -28 87 -65 151 -85 20 -7 39 -20 43 -29 13 -33 17 -168 6
-226 -24 -131 -85 -217 -188 -268 -55 -27 -80 -33 -153 -36 -450 -22 -893 488
-1021 1173 -27 143 -36 394 -19 518 24 175 89 350 176 468 55 75 166 173 238
208 172 85 392 94 510 22 108 -67 176 -210 176 -371 0 -122 -5 -133 -69 -164
-141 -67 -198 -162 -157 -261 15 -35 59 -65 97 -65 39 0 108 40 143 83 45 57
71 111 98 204 28 101 30 285 4 382 -53 196 -189 334 -364 370 -70 15 -222 13
-298 -4z"/>
<path d="M860 20714 l0 -1075 50 38 49 38 1 1038 0 1037 -50 0 -50 0 0 -1076z"/>
<path d="M22360 20753 l1 -1038 49 -38 50 -38 0 1075 0 1076 -50 0 -50 0 0
-1037z"/>
<path d="M907 18563 l-48 -98 3 -355 3 -355 48 130 48 130 -3 323 -3 324 -48
-99z"/>
<path d="M22361 18338 l-1 -327 48 -128 47 -128 3 357 2 358 -49 97 -50 98 0
-327z"/>
<path d="M1253 18479 c-50 -18 -95 -104 -168 -320 -136 -402 -375 -1019 -516
-1338 l-148 -333 31 -54 c16 -30 33 -56 36 -58 13 -8 334 728 457 1049 47 122
295 820 295 830 0 2 14 8 30 14 22 7 36 23 50 53 44 96 6 184 -67 157z"/>
<path d="M22023 18479 c-46 -17 -56 -85 -23 -157 14 -30 28 -46 50 -53 16 -6
30 -12 30 -14 0 -10 248 -708 295 -830 127 -331 444 -1057 457 -1049 4 2 20
29 36 59 l30 55 -148 332 c-140 318 -379 936 -515 1337 -91 268 -143 346 -212
320z"/>
<path d="M907 17142 l-47 -117 0 -482 0 -481 45 -18 c25 -9 48 -15 50 -12 3 3
4 280 3 615 l-3 611 -48 -116z"/>
<path d="M22360 16648 c0 -397 4 -618 10 -618 5 0 28 7 50 16 l40 16 0 483 0
482 -50 119 -49 119 -1 -617z"/>
<path d="M246 16070 c-195 -499 -264 -856 -237 -1217 19 -245 63 -419 151
-598 162 -329 453 -508 795 -492 199 10 351 72 470 192 124 124 171 259 162
460 -9 190 -59 316 -167 425 -220 222 -602 230 -816 16 -73 -73 -114 -152
-121 -234 -16 -175 124 -265 196 -125 17 34 13 113 -10 183 l-20 63 36 37 c46
47 127 87 213 106 85 17 130 17 216 -1 96 -20 152 -50 217 -114 120 -120 174
-326 134 -516 -32 -149 -109 -243 -259 -314 -112 -54 -171 -66 -306 -65 -134
1 -230 27 -340 91 -77 45 -190 155 -244 237 -199 301 -252 816 -135 1306 33
141 99 346 162 507 l43 108 -34 48 c-19 26 -37 47 -40 47 -4 0 -33 -68 -66
-150z"/>
<path d="M22968 16173 l-34 -48 43 -108 c155 -394 223 -707 223 -1025 0 -251
-40 -464 -119 -643 -50 -114 -102 -190 -186 -274 -83 -82 -169 -135 -280 -172
-69 -23 -97 -26 -205 -26 -108 0 -136 3 -205 26 -95 31 -184 82 -243 140 -171
167 -157 544 27 728 65 64 121 94 217 114 86 18 131 18 216 1 86 -19 167 -59
213 -106 l36 -37 -20 -61 c-47 -137 -10 -252 80 -252 69 0 116 85 106 192 -15
165 -171 322 -372 373 -75 19 -211 19 -294 0 -201 -48 -361 -205 -417 -413
-24 -87 -29 -262 -10 -350 36 -171 149 -314 307 -390 113 -55 183 -72 314 -79
271 -13 512 96 681 311 151 191 240 451 265 779 21 284 -19 578 -126 904 -58
181 -166 463 -177 463 -3 0 -21 -21 -40 -47z"/>
<path d="M860 15415 l0 -347 23 6 c12 3 34 6 50 6 l27 0 0 329 0 329 -36 6
c-19 4 -42 10 -50 13 -12 4 -14 -45 -14 -342z"/>
<path d="M22403 15747 l-43 -10 0 -328 0 -329 28 0 c15 0 37 -3 50 -6 l22 -6
0 346 c0 190 -3 345 -7 345 -5 -1 -27 -6 -50 -12z"/>
<path d="M883 14813 l-23 -4 0 -435 0 -434 34 0 c71 0 66 -34 66 446 l0 434
-27 -1 c-16 -1 -38 -4 -50 -6z"/>
<path d="M22360 14386 c0 -480 -5 -446 66 -446 l34 0 0 434 0 434 -31 6 c-76
15 -69 57 -69 -428z"/>
<path d="M860 11660 l0 -2000 50 0 50 0 0 2000 0 2000 -50 0 -50 0 0 -2000z"/>
<path d="M22360 11660 l0 -2000 50 0 50 0 0 2000 0 2000 -50 0 -50 0 0 -2000z"/>
<path d="M737 9541 c-109 -24 -250 -92 -335 -162 -385 -313 -506 -1033 -293
-1737 56 -185 189 -542 203 -542 3 0 21 21 40 47 l34 48 -43 108 c-155 394
-223 707 -223 1025 1 319 69 596 196 788 54 82 167 192 244 237 110 64 206 90
340 91 135 1 194 -11 306 -65 100 -47 184 -121 219 -192 98 -202 56 -488 -94
-638 -66 -65 -121 -94 -222 -115 -157 -33 -339 15 -432 114 l-28 29 20 63 c23
70 27 149 10 183 -39 74 -107 91 -152 37 -37 -43 -50 -94 -44 -162 15 -165
171 -322 372 -373 75 -19 211 -19 294 0 201 48 361 205 417 413 24 87 29 262
10 350 -36 171 -149 314 -307 390 -117 56 -185 73 -324 78 -93 3 -140 0 -208
-15z"/>
<path d="M22235 9543 c-262 -56 -442 -223 -491 -455 -19 -88 -14 -263 10 -350
56 -208 216 -365 417 -413 83 -19 219 -19 294 0 201 51 357 208 372 373 16
175 -124 265 -196 125 -17 -34 -13 -113 10 -183 l20 -63 -36 -37 c-46 -47
-127 -87 -213 -106 -85 -17 -130 -17 -216 1 -96 20 -152 50 -217 114 -120 120
-174 326 -134 516 32 149 109 243 259 314 112 54 171 66 306 65 134 -1 230
-27 340 -91 77 -45 190 -155 244 -237 199 -301 252 -816 135 -1306 -33 -141
-99 -346 -162 -507 l-43 -108 34 -48 c19 -26 37 -47 40 -47 11 0 119 282 177
463 134 409 165 794 95 1144 -58 287 -189 532 -362 672 -180 148 -454 213
-683 164z"/>
<path d="M860 8946 l0 -433 31 -7 c76 -15 69 -57 69 428 0 480 5 446 -66 446
l-34 0 0 -434z"/>
<path d="M22373 9373 c-10 -4 -13 -101 -13 -439 0 -485 -7 -443 69 -428 l31 7
0 433 0 434 -37 -1 c-21 0 -44 -3 -50 -6z"/>
<path d="M860 7905 c0 -297 2 -346 14 -342 8 3 31 9 50 13 l36 6 0 329 0 329
-27 0 c-16 0 -38 3 -50 6 l-23 6 0 -347z"/>
<path d="M22398 8243 l-38 -4 0 -328 0 -329 36 -6 c19 -4 42 -10 50 -13 12 -4
14 45 14 341 0 271 -3 346 -12 344 -7 -1 -30 -3 -50 -5z"/>
<path d="M970 7515 c-317 -65 -611 -336 -750 -691 -82 -210 -120 -430 -120
-699 0 -362 77 -708 241 -1088 127 -295 415 -844 620 -1184 l20 -31 -78 44
c-122 70 -215 96 -361 102 -108 4 -131 2 -193 -18 -157 -51 -264 -172 -305
-347 -22 -94 -15 -257 15 -334 45 -118 134 -199 217 -199 80 0 122 82 73 144
-22 28 -87 65 -151 85 -20 7 -39 20 -43 29 -13 33 -17 168 -6 226 24 131 85
217 188 268 55 27 80 33 153 36 450 22 894 -488 1021 -1173 27 -143 36 -394
19 -518 -24 -175 -89 -350 -176 -468 -55 -75 -165 -171 -238 -207 -173 -86
-392 -96 -510 -23 -108 67 -176 210 -176 371 0 122 5 133 69 164 141 67 198
162 157 261 -15 35 -59 65 -97 65 -39 0 -108 -40 -143 -83 -82 -101 -120 -230
-120 -402 1 -189 45 -316 151 -426 125 -131 327 -173 556 -115 235 60 417 200
535 414 169 307 187 776 51 1317 -82 326 -149 485 -534 1265 -395 801 -506
1047 -619 1380 -103 306 -141 524 -133 765 9 240 48 374 160 540 141 210 332
349 536 390 278 57 554 -100 649 -369 21 -58 25 -91 26 -176 1 -127 -21 -207
-88 -321 l-45 -77 -104 5 c-86 5 -110 3 -141 -12 -98 -47 -86 -190 21 -237
138 -61 295 54 421 308 62 125 77 190 76 334 0 107 -4 136 -27 205 -67 201
-224 369 -417 445 -121 48 -272 61 -400 35z"/>
<path d="M22070 7516 c-143 -31 -260 -95 -365 -201 -82 -83 -135 -169 -172
-280 -23 -69 -27 -97 -27 -205 0 -146 15 -213 75 -334 129 -255 285 -369 422
-308 107 47 119 190 21 237 -31 15 -55 17 -141 12 l-104 -5 -45 77 c-67 114
-89 194 -88 321 1 85 5 118 26 176 66 188 226 328 423 369 90 19 138 19 233
-1 270 -55 539 -311 640 -609 40 -121 47 -174 47 -380 -1 -179 -4 -213 -28
-330 -92 -429 -229 -761 -737 -1785 -146 -294 -296 -606 -333 -693 -195 -457
-288 -894 -274 -1282 20 -538 256 -885 674 -991 229 -58 431 -16 556 115 106
110 150 237 151 426 0 172 -38 301 -120 402 -35 43 -104 83 -143 83 -38 0 -82
-30 -97 -65 -41 -99 16 -194 157 -261 64 -31 69 -42 69 -164 0 -161 -68 -304
-176 -371 -118 -72 -338 -63 -510 22 -72 35 -183 133 -238 208 -87 118 -152
293 -176 468 -17 124 -8 375 19 518 122 652 528 1147 961 1172 194 11 318 -62
381 -226 17 -44 22 -79 23 -161 1 -137 -4 -155 -51 -171 -65 -20 -130 -57
-152 -85 -49 -62 -7 -144 73 -144 83 0 172 81 217 199 30 77 37 240 15 334
-41 175 -148 296 -305 347 -62 20 -85 22 -193 18 -146 -6 -239 -32 -361 -102
l-78 -44 20 31 c127 211 313 551 445 814 307 614 400 932 413 1403 4 158 1
234 -11 330 -54 407 -213 723 -469 926 -91 72 -249 155 -342 180 -84 22 -245
27 -325 10z"/>
<path d="M898 7273 l-38 -15 0 -483 0 -482 50 -119 49 -119 1 618 c0 487 -3
617 -12 616 -7 0 -30 -7 -50 -16z"/>
<path d="M22360 6673 l1 -618 49 119 50 119 0 482 0 483 -40 16 c-22 9 -45 16
-50 16 -6 0 -10 -221 -10 -617z"/>
<path d="M483 6938 c-5 -7 -21 -34 -36 -59 l-26 -46 148 -334 c141 -318 381
-939 518 -1344 80 -234 129 -317 189 -317 60 0 82 77 44 160 -14 30 -28 46
-50 53 -16 6 -30 12 -30 13 0 9 -213 613 -266 754 -100 267 -266 659 -462
1090 -14 31 -22 39 -29 30z"/>
<path d="M22727 6730 c-121 -271 -276 -637 -352 -835 -47 -122 -295 -820 -295
-830 0 -2 -14 -8 -30 -14 -22 -7 -36 -23 -50 -53 -38 -83 -16 -160 44 -160 60
0 109 83 190 321 137 403 375 1021 516 1339 l148 332 -30 55 c-16 30 -32 57
-36 59 -4 2 -51 -94 -105 -214z"/>
<path d="M861 5204 l0 -359 49 -95 49 -95 0 327 1 327 -46 123 c-25 67 -47
125 -50 127 -2 2 -4 -157 -3 -355z"/>
<path d="M22408 5437 l-48 -128 1 -327 0 -327 50 98 49 97 -2 358 -3 357 -47
-128z"/>
<path d="M860 2606 l0 -1076 50 0 50 0 0 1038 -1 1037 -49 38 -50 38 0 -1075z"/>
<path d="M22408 3642 l-47 -37 -1 -1037 0 -1038 50 0 50 0 0 1075 c0 591 -1
1075 -2 1075 -2 -1 -24 -18 -50 -38z"/>
<path d="M6720 1814 c-224 -45 -450 -185 -520 -322 -33 -63 -36 -120 -12 -175
47 -107 190 -119 237 -21 15 31 17 55 12 141 l-5 104 77 45 c114 67 194 89
321 88 85 -1 118 -5 176 -26 215 -76 356 -261 379 -495 31 -310 -254 -676
-620 -801 -121 -40 -174 -47 -380 -47 -179 1 -213 4 -330 28 -429 92 -761 229
-1785 737 -294 146 -606 296 -693 333 -638 272 -1261 348 -1695 207 -348 -114
-582 -407 -599 -752 -10 -188 31 -311 136 -411 110 -106 237 -150 426 -151
172 0 301 38 402 120 43 35 83 104 83 143 0 38 -30 82 -65 97 -99 41 -194 -16
-261 -157 -31 -64 -42 -69 -164 -69 -161 0 -304 68 -371 176 -72 118 -63 338
22 510 35 72 133 183 208 238 118 87 293 152 468 176 124 17 375 8 518 -19
652 -121 1147 -528 1172 -961 11 -194 -62 -318 -226 -381 -44 -17 -79 -22
-161 -23 -137 -1 -155 4 -171 51 -20 65 -57 130 -85 152 -62 49 -144 7 -144
-73 0 -83 81 -172 199 -217 77 -30 240 -37 334 -15 175 41 293 145 347 307 19
56 21 79 17 189 -5 148 -31 240 -101 363 l-44 78 31 -20 c211 -127 551 -313
814 -445 614 -307 932 -400 1403 -413 158 -4 234 -1 330 11 407 54 723 214
926 469 72 91 156 250 179 342 65 253 -5 507 -190 690 -131 130 -280 194 -465
200 -58 2 -116 1 -130 -1z"/>
<path d="M16355 1806 c-296 -69 -508 -293 -555 -589 -25 -151 0 -292 79 -452
147 -297 437 -514 817 -609 176 -45 325 -59 554 -53 468 12 789 107 1395 409
271 136 604 318 822 449 l31 20 -44 -78 c-70 -122 -96 -215 -102 -361 -4 -108
-2 -131 18 -193 51 -157 172 -264 347 -305 94 -22 257 -15 334 15 118 45 199
134 199 217 0 80 -82 122 -144 73 -28 -22 -65 -87 -85 -151 -7 -20 -20 -39
-29 -43 -33 -13 -168 -17 -226 -6 -131 24 -217 85 -268 188 -27 55 -33 80 -36
153 -22 450 488 893 1173 1021 143 27 394 36 518 19 175 -24 350 -89 468 -176
75 -55 173 -166 208 -238 70 -142 90 -313 51 -439 -47 -151 -202 -247 -400
-247 -122 0 -133 5 -164 69 -67 141 -162 198 -261 157 -35 -15 -65 -59 -65
-97 0 -39 40 -108 83 -143 101 -82 230 -120 402 -120 189 1 316 45 426 151
131 125 173 327 115 556 -152 597 -806 819 -1731 586 -321 -81 -526 -167
-1235 -519 -936 -464 -1279 -611 -1647 -703 -221 -56 -341 -70 -528 -64 -240
9 -374 48 -540 160 -210 141 -349 332 -390 536 -57 278 100 554 369 649 58 21
91 25 176 26 127 1 207 -21 321 -88 l77 -45 -5 -104 c-5 -86 -3 -110 12 -141
47 -98 190 -86 237 21 61 137 -53 293 -308 422 -44 21 -106 47 -139 56 -83 22
-255 28 -330 11z"/>
<path d="M8779 1575 c-127 -25 -245 -90 -322 -175 -200 -222 -196 -592 7 -796
73 -73 152 -114 234 -121 175 -16 265 124 125 196 -34 17 -118 13 -185 -10
l-61 -20 -37 36 c-66 64 -120 208 -120 320 0 58 26 171 52 224 33 68 126 157
201 191 74 33 194 60 269 60 73 0 183 -25 245 -55 71 -35 145 -119 192 -219
54 -112 66 -171 65 -306 -1 -134 -27 -230 -91 -340 -45 -77 -155 -190 -237
-244 -301 -199 -816 -252 -1306 -135 -141 33 -346 99 -507 162 l-108 43 -48
-34 c-26 -19 -47 -37 -47 -40 0 -11 282 -119 463 -177 326 -107 620 -147 904
-126 243 19 419 63 598 151 329 162 508 453 492 795 -7 132 -25 202 -80 315
-77 158 -219 270 -384 305 -83 18 -225 18 -314 0z"/>
<path d="M14223 1575 c-164 -37 -308 -152 -381 -306 -55 -113 -72 -183 -79
-314 -13 -271 96 -512 311 -681 191 -151 451 -240 779 -265 284 -21 578 19
904 126 181 58 463 166 463 177 0 3 -21 21 -47 40 l-48 34 -108 -43 c-394
-155 -707 -223 -1025 -223 -319 1 -596 69 -788 196 -82 54 -192 167 -237 244
-64 110 -90 206 -91 340 -1 135 11 194 65 306 47 100 121 184 192 219 202 98
488 56 638 -94 65 -66 94 -121 115 -222 33 -157 -15 -339 -114 -432 l-29 -28
-61 20 c-137 47 -252 10 -252 -80 0 -69 85 -116 192 -106 165 15 322 171 373
372 19 75 19 211 0 294 -48 201 -205 360 -413 417 -80 22 -281 27 -359 9z"/>
<path d="M4860 1322 c-13 -11 -22 -29 -22 -46 0 -60 83 -109 321 -190 403
-137 1021 -375 1339 -516 l332 -148 55 30 c30 16 57 32 59 36 8 13 -718 330
-1049 457 -122 47 -820 295 -830 295 -2 0 -8 14 -14 30 -20 58 -143 91 -191
52z"/>
<path d="M18322 1320 c-30 -14 -46 -28 -53 -50 -6 -16 -12 -30 -14 -30 -10 0
-708 -248 -830 -295 -331 -127 -1057 -444 -1049 -457 2 -4 29 -20 59 -36 l55
-30 332 148 c318 141 936 379 1339 516 238 81 322 130 322 190 0 60 -78 82
-161 44z"/>
<path d="M1530 910 l0 -50 1076 0 1075 0 -38 50 -38 49 -1037 1 -1038 0 0 -50z"/>
<path d="M4753 909 l97 -49 358 2 357 3 -128 48 -128 47 -327 -1 -327 0 98
-50z"/>
<path d="M6174 910 l119 -50 482 0 483 0 16 40 c9 22 16 45 16 50 0 6 -221 10
-617 10 l-618 -1 119 -49z"/>
<path d="M7576 924 c-4 -19 -10 -42 -13 -50 -4 -12 45 -14 342 -14 l347 0 -6
23 c-3 12 -6 34 -6 50 l0 27 -329 0 -329 0 -6 -36z"/>
<path d="M8500 941 c0 -10 3 -33 6 -50 l7 -31 433 0 434 0 0 34 c0 71 34 66
-446 66 -418 0 -434 -1 -434 -19z"/>
<path d="M9660 910 l0 -50 2000 0 2000 0 0 50 0 50 -2000 0 -2000 0 0 -50z"/>
<path d="M13946 944 c-3 -9 -6 -31 -6 -50 l0 -34 434 0 434 0 6 31 c15 76 57
69 -428 69 -386 0 -435 -2 -440 -16z"/>
<path d="M15080 933 c0 -16 -3 -38 -6 -50 l-6 -23 347 0 c297 0 346 2 342 14
-3 8 -9 31 -13 50 l-6 36 -329 0 -329 0 0 -27z"/>
<path d="M16030 950 c0 -5 7 -28 16 -50 l16 -40 483 0 482 0 119 50 119 49
-617 1 c-397 0 -618 -4 -618 -10z"/>
<path d="M17880 912 l-125 -47 357 -3 358 -2 97 49 98 50 -330 0 -330 0 -125
-47z"/>
<path d="M19677 910 l-38 -50 1075 0 1076 0 0 50 0 50 -1037 0 -1038 -1 -38
-49z"/>
</g>
</svg>
