<?xml version="1.0" standalone="no"?>
<!DOCTYPE svg PUBLIC "-//W3C//DTD SVG 20010904//EN"
 "http://www.w3.org/TR/2001/REC-SVG-20010904/DTD/svg10.dtd">
<svg version="1.0" xmlns="http://www.w3.org/2000/svg"
 width="1280.000000pt" height="720.000000pt" viewBox="0 0 1280.000000 720.000000"
 preserveAspectRatio="xMidYMid meet">

<g transform="translate(0.000000,720.000000) scale(0.100000,-0.100000)"
fill="#000000" stroke="none">
<path d="M6339 6942 c-184 -227 -185 -370 -6 -644 28 -43 54 -78 57 -78 13 0
161 312 174 368 16 72 9 148 -20 204 -24 48 -98 148 -131 180 l-28 27 -46 -57z
m70 -329 c21 -74 3 -289 -23 -280 -27 9 -27 317 0 317 7 0 18 -17 23 -37z"/>
<path d="M6886 6555 c-82 -21 -189 -80 -243 -134 -72 -72 -184 -251 -157 -251
3 0 51 36 107 80 203 160 371 218 549 191 44 -7 91 -17 104 -23 40 -19 40 0
-2 43 -85 88 -230 126 -358 94z"/>
<path d="M5677 6539 c-32 -11 -76 -31 -97 -44 -39 -25 -87 -82 -77 -92 4 -3
25 2 49 12 66 27 221 32 311 10 119 -29 230 -89 366 -200 44 -36 83 -65 86
-65 22 0 -138 213 -206 274 -127 114 -291 154 -432 105z"/>
<path d="M3522 6431 c-188 -65 -138 -245 87 -307 40 -11 9 -12 -246 -13 l-293
-1 0 34 c0 25 -7 39 -22 50 -32 23 -46 20 -79 -15 -22 -24 -35 -30 -60 -27
-37 3 -52 25 -17 24 18 -1 24 5 26 26 3 22 -2 30 -22 39 -64 30 -105 -63 -51
-116 18 -18 35 -25 65 -25 22 0 40 -4 40 -10 0 -5 -14 -10 -31 -10 -59 0 -98
-35 -99 -87 0 -37 22 -63 54 -63 42 0 62 44 31 70 -12 10 -17 8 -25 -11 l-10
-24 3 25 c3 38 60 41 92 6 43 -46 105 -29 105 29 l0 35 1133 0 1132 -1 50 -30
c172 -102 282 -143 432 -160 149 -18 312 10 428 73 59 31 113 76 120 98 11 36
59 25 108 -24 103 -103 213 -138 427 -139 207 -1 322 30 472 128 l83 55 1143
0 1142 0 0 -35 c0 -24 7 -38 22 -49 32 -23 46 -20 79 15 22 24 35 30 60 27 37
-3 52 -25 17 -24 -18 1 -24 -5 -26 -26 -3 -22 2 -30 22 -39 64 -30 105 63 51
116 -18 18 -35 25 -65 25 -22 0 -40 5 -40 10 0 6 14 10 31 10 59 0 98 35 99
87 0 37 -22 63 -54 63 -42 0 -62 -44 -31 -70 12 -10 17 -8 25 11 l10 24 -3
-25 c-3 -38 -60 -41 -92 -6 -43 46 -105 29 -105 -29 l0 -35 -282 0 -283 1 52
18 c75 25 129 67 153 115 25 53 25 67 0 116 -49 97 -238 120 -315 40 -53 -56
-22 -120 64 -134 48 -7 111 14 111 38 0 9 -1 16 -2 16 -2 0 -21 -6 -42 -14
-91 -31 -157 47 -75 89 38 20 130 19 173 -2 40 -18 65 -62 58 -99 -6 -35 -77
-92 -137 -110 -170 -52 -474 -11 -677 92 -53 27 -58 28 -58 14 0 -13 125 -94
188 -123 26 -11 79 -28 117 -38 69 -17 58 -18 -600 -18 l-670 0 45 24 c120 65
259 82 358 45 65 -25 77 -25 102 0 16 16 18 24 8 44 -17 38 -66 56 -150 56
-103 0 -206 -31 -311 -92 -67 -39 -48 -14 26 33 33 22 103 54 156 71 93 31
101 32 261 32 151 0 173 -3 255 -28 105 -32 170 -66 231 -119 25 -22 47 -37
50 -34 10 10 -24 75 -61 116 -75 83 -233 132 -425 132 -253 1 -442 -66 -591
-208 l-76 -73 -993 0 -992 0 -63 58 c-100 94 -234 163 -405 209 -100 26 -302
24 -403 -5 -139 -40 -235 -104 -251 -167 -10 -40 -2 -41 41 -6 50 39 131 76
229 103 64 17 109 21 234 22 170 1 241 -14 360 -74 77 -40 108 -67 35 -32
-165 80 -310 89 -377 25 -35 -33 -35 -43 -2 -78 l25 -28 29 34 28 34 103 0
c91 0 112 -4 169 -28 36 -15 76 -36 90 -47 25 -19 21 -20 -615 -19 -634 0
-639 0 -583 18 31 10 79 31 105 46 56 33 166 115 161 121 -2 2 -47 -15 -99
-37 -246 -107 -528 -129 -684 -54 -86 41 -110 114 -54 166 35 33 80 44 147 36
73 -8 106 -61 57 -93 -38 -25 -90 -22 -120 6 -24 22 -25 23 -25 3 0 -31 35
-55 87 -60 64 -6 116 27 121 76 4 40 -17 66 -73 92 -50 23 -86 23 -153 0z
m-494 -344 c2 -55 0 -67 -13 -67 -12 0 -15 14 -15 71 0 52 3 70 13 67 7 -3 13
-29 15 -71z m6782 -8 c0 -52 -3 -70 -12 -67 -8 3 -14 29 -16 71 -2 55 0 67 13
67 12 0 15 -14 15 -71z m-3456 -30 c-11 -18 -143 -76 -225 -99 -140 -39 -323
-37 -456 6 -70 23 -177 76 -181 92 -3 9 88 12 433 12 321 0 434 -3 429 -11z
m986 1 c0 -12 -106 -66 -180 -92 -138 -47 -361 -44 -518 9 -84 28 -167 67
-177 83 -4 7 138 10 434 10 283 0 441 -4 441 -10z"/>
<path d="M2615 6258 c-60 -47 -232 -133 -297 -149 -46 -11 -65 -29 -32 -29 23
0 174 -72 231 -110 26 -18 65 -49 85 -68 21 -20 41 -33 44 -29 6 6 -5 54 -22
94 -3 6 10 16 30 23 39 13 86 46 86 61 0 6 -6 7 -12 2 -7 -4 -57 -10 -111 -13
l-99 -5 40 -30 c22 -16 46 -39 52 -49 7 -11 -6 -4 -28 15 -22 19 -63 46 -91
60 l-50 26 112 -5 c138 -5 198 7 192 41 -5 26 -60 75 -92 83 -13 4 -23 7 -23
8 0 1 9 21 21 45 31 64 21 72 -36 29z m-10 -66 c-17 -15 -41 -34 -55 -43 -23
-15 -21 -16 56 -22 75 -6 142 -22 132 -32 -2 -2 -22 1 -44 7 -21 6 -85 11
-141 12 -57 0 -103 1 -103 2 0 2 25 14 56 28 30 14 69 37 87 51 42 33 50 31
12 -3z"/>
<path d="M10160 6285 c0 -9 7 -32 15 -52 8 -19 15 -37 15 -38 0 -2 -15 -9 -34
-15 -39 -13 -86 -46 -86 -61 0 -6 6 -7 13 -2 6 4 56 10 110 13 l99 5 -40 30
c-22 17 -46 39 -52 49 -7 11 6 4 28 -15 22 -19 63 -46 91 -60 l50 -26 -112 5
c-138 5 -198 -7 -192 -41 5 -26 60 -75 93 -83 12 -4 22 -7 22 -8 0 -1 -9 -21
-20 -44 -33 -69 -26 -76 33 -31 62 48 233 133 300 150 45 11 64 29 31 29 -48
0 -270 126 -323 184 -28 30 -41 33 -41 11z m20 -226 c41 -5 99 -7 128 -3 28 3
52 4 52 1 0 -3 -25 -17 -55 -31 -30 -13 -72 -37 -92 -52 l-38 -27 30 29 c17
16 41 37 55 46 l25 17 -46 0 c-62 1 -151 19 -164 33 -7 8 -5 9 10 4 10 -4 53
-11 95 -17z"/>
<path d="M2742 6218 c-28 -28 3 -109 48 -123 18 -6 15 -10 -21 -45 -34 -32
-40 -44 -37 -72 3 -29 6 -33 33 -33 29 0 30 2 33 50 2 32 10 57 22 70 19 21
19 21 0 38 -14 12 -20 29 -20 60 0 42 -13 67 -35 67 -6 0 -16 -5 -23 -12z"/>
<path d="M10017 6224 c-4 -4 -7 -28 -7 -54 0 -34 -5 -52 -20 -65 l-20 -18 20
-19 c14 -13 20 -32 20 -62 0 -50 21 -76 48 -59 39 24 12 112 -38 128 -18 6
-15 10 21 45 34 32 40 44 37 72 -2 27 -8 34 -28 36 -14 2 -29 0 -33 -4z"/>
<path d="M6955 819 c-167 -22 -341 -81 -439 -148 -41 -28 -51 -31 -126 -31
-74 0 -85 3 -126 31 -147 101 -354 149 -643 149 -241 0 -474 -47 -650 -131
l-104 -49 -1698 0 -1699 0 0 29 c0 20 -8 35 -22 45 -32 23 -46 20 -79 -15 -22
-24 -35 -30 -60 -27 -37 3 -52 25 -17 24 18 -1 24 5 26 26 3 22 -2 30 -22 39
-64 30 -105 -63 -51 -116 18 -18 35 -25 65 -25 22 0 40 -4 40 -10 0 -5 -14
-10 -31 -10 -59 0 -98 -35 -99 -87 0 -37 22 -63 54 -63 42 0 62 44 31 70 -12
10 -17 8 -25 -11 l-10 -24 3 25 c3 38 60 41 92 6 44 -47 105 -28 105 32 l0 38
1578 1 c867 1 1609 -1 1647 -5 l70 -8 -80 -41 c-102 -52 -219 -89 -331 -104
-104 -14 -185 -8 -274 20 -78 25 -128 26 -158 5 -46 -32 -18 -75 64 -100 63
-19 245 -18 342 2 100 20 239 68 326 111 77 39 96 39 38 0 -193 -127 -458
-197 -745 -197 -313 1 -575 62 -748 176 -45 29 -84 52 -87 49 -9 -8 48 -93 83
-124 74 -65 206 -117 371 -147 135 -25 466 -25 609 -1 289 50 485 136 670 294
l80 68 1472 0 1471 0 44 -33 c243 -182 429 -268 703 -322 140 -28 393 -38 532
-20 261 32 468 123 501 220 14 39 5 43 -32 16 -129 -97 -393 -163 -691 -173
-246 -8 -444 25 -634 106 -60 26 -174 90 -160 91 3 0 48 -18 100 -41 119 -52
252 -87 355 -95 201 -16 359 64 268 135 -35 27 -58 26 -77 -3 -9 -13 -33 -30
-54 -37 -55 -20 -262 -17 -340 4 -87 23 -208 71 -273 109 -47 26 -52 32 -35
38 11 4 748 8 1638 8 l1617 0 0 -39 c0 -28 6 -42 22 -53 32 -23 46 -20 79 15
22 24 35 30 60 27 37 -3 52 -25 17 -24 -18 1 -24 -5 -26 -26 -3 -22 2 -30 22
-39 64 -30 105 63 51 116 -18 18 -35 25 -65 25 -22 0 -40 5 -40 10 0 6 14 10
31 10 59 0 98 35 99 87 0 37 -22 63 -54 63 -42 0 -62 -44 -31 -70 12 -10 17
-8 25 11 l10 24 -3 -25 c-3 -38 -60 -41 -92 -6 -41 44 -105 29 -105 -24 l0
-30 -1694 0 -1694 0 -87 40 c-216 99 -398 140 -655 145 -96 2 -206 0 -245 -6z
m-1060 -73 c107 -19 250 -56 320 -85 l50 -20 -625 0 -625 1 61 29 c76 37 226
75 341 88 116 13 365 6 478 -13z m1579 -6 c54 -11 142 -38 195 -58 l96 -37
-307 -3 c-169 -1 -448 -1 -620 0 l-313 3 90 32 c206 74 335 93 575 88 139 -2
209 -9 284 -25z m-6046 -133 c2 -55 0 -67 -13 -67 -12 0 -15 14 -15 71 0 52 3
70 13 67 7 -3 13 -29 15 -71z m9972 -8 c0 -52 -3 -70 -12 -67 -8 3 -14 29 -16
71 -2 55 0 67 13 67 12 0 15 -14 15 -71z"/>
<path d="M1015 778 c-60 -47 -232 -133 -297 -149 -46 -11 -65 -29 -32 -29 23
0 174 -72 231 -110 26 -18 65 -49 85 -68 21 -20 41 -33 44 -29 6 6 -5 54 -22
94 -3 6 10 16 30 23 39 13 86 46 86 61 0 6 -6 7 -12 2 -7 -4 -57 -10 -111 -13
l-99 -5 40 -30 c22 -16 46 -39 52 -49 7 -11 -6 -4 -28 15 -22 19 -63 46 -91
60 l-50 26 112 -5 c138 -5 198 7 192 41 -5 26 -60 75 -92 83 -13 4 -23 7 -23
8 0 1 9 21 21 45 31 64 21 72 -36 29z m-10 -66 c-17 -15 -41 -34 -55 -43 -23
-15 -21 -16 56 -22 75 -6 142 -22 132 -32 -2 -2 -22 1 -44 7 -21 6 -85 11
-141 12 -57 0 -103 1 -103 2 0 2 25 14 56 28 30 14 69 37 87 51 42 33 50 31
12 -3z"/>
<path d="M11750 805 c0 -9 7 -32 15 -52 8 -19 15 -37 15 -38 0 -2 -15 -9 -34
-15 -39 -13 -86 -46 -86 -61 0 -6 6 -7 13 -2 6 4 56 10 110 13 l99 5 -40 30
c-22 17 -46 39 -52 49 -7 11 6 4 28 -15 22 -19 63 -46 91 -60 l50 -26 -112 5
c-138 5 -198 -7 -192 -41 5 -26 60 -75 93 -83 12 -4 22 -7 22 -8 0 -1 -9 -21
-20 -44 -33 -69 -26 -76 33 -31 62 48 233 133 300 150 45 11 64 29 31 29 -48
0 -270 126 -323 184 -28 30 -41 33 -41 11z m20 -226 c41 -5 99 -7 128 -3 28 3
52 4 52 1 0 -3 -25 -17 -55 -31 -30 -13 -72 -37 -92 -52 l-38 -27 30 29 c17
16 41 37 55 46 l25 17 -46 0 c-62 1 -151 19 -164 33 -7 8 -5 9 10 4 10 -4 53
-11 95 -17z"/>
<path d="M1142 738 c-28 -28 3 -109 48 -123 18 -6 15 -10 -21 -45 -34 -32 -40
-44 -37 -72 3 -29 6 -33 33 -33 29 0 30 2 33 50 2 32 10 57 22 70 19 21 19 21
0 38 -14 12 -20 29 -20 60 0 42 -13 67 -35 67 -6 0 -16 -5 -23 -12z"/>
<path d="M11607 744 c-4 -4 -7 -28 -7 -54 0 -34 -5 -52 -20 -65 l-20 -18 20
-19 c14 -13 20 -32 20 -62 0 -50 21 -76 48 -59 39 24 12 112 -38 128 -18 6
-15 10 21 45 34 32 40 44 37 72 -2 27 -8 34 -28 36 -14 2 -29 0 -33 -4z"/>
<path d="M2202 540 c-291 -37 -455 -171 -369 -301 13 -21 45 -45 82 -64 57
-29 66 -30 185 -30 113 0 130 2 174 25 28 14 59 38 70 53 19 26 19 30 6 54
-28 49 -75 68 -172 68 -77 0 -90 -3 -110 -22 -30 -30 -21 -35 32 -17 61 21
133 14 165 -16 32 -30 32 -53 -1 -79 -40 -32 -100 -44 -190 -38 -97 6 -169 37
-197 84 -16 28 -17 35 -4 66 43 101 221 157 501 157 253 0 447 -33 701 -119
65 -23 124 -41 130 -41 15 1 -58 45 -140 86 -98 49 -230 90 -365 114 -132 24
-387 34 -498 20z"/>
<path d="M10161 539 c-194 -25 -356 -87 -516 -197 -27 -19 -41 -31 -30 -27
103 41 317 107 399 124 287 59 617 55 793 -11 111 -41 161 -120 113 -180 -36
-46 -114 -73 -215 -73 -101 0 -147 17 -168 62 -10 23 -8 28 16 49 49 42 167
44 208 3 24 -24 34 -19 24 11 -10 31 -64 50 -143 50 -124 0 -202 -64 -155
-129 90 -123 428 -96 499 40 63 122 -129 244 -440 278 -109 12 -291 12 -385 0z"/>
<path d="M6510 499 c196 -177 432 -237 657 -168 35 11 75 31 90 45 21 19 23
24 9 20 -10 -4 -61 -12 -112 -18 -107 -14 -240 -2 -366 33 -73 20 -274 103
-292 120 -6 5 -15 9 -20 9 -6 -1 9 -19 34 -41z"/>
<path d="M6200 486 c-197 -91 -339 -122 -515 -112 -60 3 -123 9 -139 12 -39 9
-26 -10 24 -36 140 -71 369 -63 546 19 57 27 214 160 189 160 -5 1 -53 -19
-105 -43z"/>
<path d="M6339 410 c-26 -26 -29 -34 -23 -67 7 -41 67 -169 89 -192 11 -12 20
-1 54 68 23 45 44 101 47 125 6 39 3 48 -19 70 -39 39 -108 37 -148 -4z"/>
</g>
</svg>
