<?xml version="1.0" standalone="no"?>
<!DOCTYPE svg PUBLIC "-//W3C//DTD SVG 20010904//EN"
 "http://www.w3.org/TR/2001/REC-SVG-20010904/DTD/svg10.dtd">
<svg version="1.0" xmlns="http://www.w3.org/2000/svg"
 width="1280.000000pt" height="720.000000pt" viewBox="0 0 1280.000000 720.000000"
 preserveAspectRatio="xMidYMid meet">

<g transform="translate(0.000000,720.000000) scale(0.100000,-0.100000)"
fill="#6995c5" stroke="none">
<path d="M6183 6947 c-40 -42 -89 -132 -97 -179 -4 -20 -4 -56 0 -80 6 -38 18
-54 104 -138 54 -52 103 -105 109 -117 19 -38 12 -70 -29 -124 -22 -30 -40
-56 -40 -59 1 -25 44 -44 69 -30 26 13 72 77 87 118 l12 35 19 -44 c11 -24 36
-61 56 -82 29 -31 40 -37 59 -31 21 6 37 21 38 34 0 3 -18 29 -40 59 -41 54
-48 86 -29 124 6 12 55 65 109 117 86 84 98 100 104 138 4 24 4 60 0 80 -8 48
-64 149 -103 186 -38 36 -40 25 -6 -20 40 -53 75 -135 75 -178 0 -67 -32 -115
-116 -176 -92 -66 -142 -122 -150 -167 -8 -42 -20 -42 -28 -1 -9 47 -50 93
-140 160 -91 67 -126 117 -126 182 0 45 34 127 76 181 35 46 26 54 -13 12z"/>
<path d="M6040 6935 c-96 -38 -135 -75 -145 -136 l-7 -38 -92 6 c-63 4 -95 2
-100 -5 -7 -12 31 -79 58 -101 20 -17 21 -41 1 -41 -23 0 -76 -29 -108 -59
-38 -34 -55 -78 -63 -157 l-7 -65 66 50 c134 101 239 147 360 157 103 8 101 6
73 61 -14 27 -30 72 -37 101 -14 69 7 138 62 204 59 71 58 71 -61 23z"/>
<path d="M6660 6965 c0 -3 18 -27 39 -53 55 -66 76 -135 62 -204 -7 -29 -23
-74 -37 -101 -28 -55 -30 -53 73 -61 121 -10 226 -56 360 -157 l66 -50 -7 65
c-8 79 -25 123 -63 157 -32 30 -85 59 -108 59 -20 0 -19 24 1 41 27 22 65 89
58 101 -5 7 -37 9 -100 5 l-92 -6 -7 40 c-10 59 -63 108 -150 138 -39 13 -76
26 -82 29 -7 2 -13 1 -13 -3z"/>
<path d="M6351 6781 c-23 -45 -44 -101 -47 -125 -6 -39 -3 -48 19 -70 39 -39
108 -37 148 4 26 26 29 34 23 67 -7 41 -67 169 -89 192 -11 12 -20 1 -54 -68z"/>
<path d="M5175 6536 c-66 -30 -113 -115 -100 -177 10 -45 67 -103 128 -130 77
-33 219 -38 309 -11 84 26 110 40 230 119 115 76 193 109 274 118 104 11 163
-42 119 -109 -34 -51 -148 -71 -259 -46 -45 10 -52 9 -69 -9 -45 -44 20 -74
163 -75 99 0 166 24 220 79 40 41 52 110 26 150 -53 81 -233 87 -381 12 -22
-11 -83 -51 -136 -88 -119 -85 -183 -115 -278 -130 -151 -23 -294 35 -318 129
-9 36 13 94 47 127 27 26 39 30 103 33 51 3 84 -1 111 -12 49 -20 59 -13 14
10 -44 23 -163 29 -203 10z"/>
<path d="M7459 6541 c-34 -11 -72 -32 -66 -37 2 -2 21 3 43 12 27 11 60 15
111 12 64 -3 76 -7 103 -33 34 -33 56 -91 47 -127 -24 -94 -167 -152 -318
-129 -92 15 -159 45 -264 120 -44 32 -101 70 -126 84 -153 89 -347 90 -405 2
-26 -40 -14 -109 26 -150 54 -55 121 -79 220 -79 143 1 208 31 163 75 -17 18
-24 19 -69 9 -111 -25 -225 -5 -259 46 -44 67 15 120 119 109 81 -9 159 -42
274 -118 120 -79 146 -93 230 -119 93 -28 233 -22 312 14 62 28 115 82 125
127 14 64 -35 149 -102 177 -35 15 -122 17 -164 5z"/>
<path d="M10220 6341 c0 -41 105 -136 207 -187 l78 -39 -185 0 c-139 0 -191
-3 -209 -14 l-25 -14 25 -12 c42 -22 138 -35 268 -36 115 0 123 -2 91 -13 -61
-23 -154 -73 -194 -105 -21 -17 -41 -31 -44 -31 -13 0 30 38 92 81 l69 49 -59
0 c-77 0 -179 17 -215 36 -16 8 -29 11 -29 6 0 -17 67 -72 113 -92 26 -11 47
-23 47 -26 0 -3 -7 -16 -16 -29 -9 -14 -13 -25 -10 -25 4 0 0 -10 -8 -22 -9
-12 -16 -32 -16 -45 0 -20 7 -17 73 33 39 30 117 77 172 103 93 46 247 101
281 101 25 0 15 17 -15 23 -97 20 -316 139 -428 235 l-63 53 0 -30z"/>
<path d="M2525 6302 c-38 -29 -115 -75 -170 -101 -93 -46 -247 -101 -281 -101
-25 0 -15 -17 15 -23 97 -20 316 -139 429 -235 l62 -53 0 30 c0 41 -105 136
-207 187 l-78 39 185 0 c139 0 191 3 209 14 l25 14 -25 12 c-42 22 -138 35
-268 36 -115 0 -123 2 -91 13 61 23 154 73 194 105 21 17 41 31 44 31 13 0
-30 -38 -92 -81 l-69 -49 59 0 c77 0 179 -17 215 -36 16 -8 29 -11 29 -6 0 17
-67 72 -112 92 -27 11 -48 23 -48 26 0 3 7 16 16 29 9 14 13 25 10 25 -4 0 1
11 10 24 8 14 14 33 12 43 -2 15 -14 10 -73 -35z"/>
<path d="M2820 6263 c-28 -36 -22 -95 14 -131 20 -20 38 -27 86 -30 39 -3 60
-9 60 -17 0 -8 -21 -14 -60 -17 -48 -3 -66 -10 -86 -30 -58 -58 -32 -158 41
-158 18 0 41 7 49 16 36 36 5 101 -36 75 -17 -11 -19 -10 -16 6 2 14 14 19 56
21 47 3 53 1 63 -22 14 -30 60 -51 93 -42 40 10 56 33 56 82 l0 44 3260 0
3260 0 0 -49 c0 -54 15 -77 56 -87 33 -9 79 12 93 42 10 23 16 25 63 22 42 -2
54 -7 56 -21 3 -16 1 -17 -16 -6 -41 26 -72 -39 -36 -75 8 -9 31 -16 49 -16
73 0 99 100 41 158 -20 20 -38 27 -86 30 -82 6 -82 28 0 34 48 3 66 10 86 30
58 58 32 158 -41 158 -18 0 -41 -7 -49 -16 -36 -36 -5 -101 36 -75 17 11 19
10 16 -6 -2 -14 -14 -19 -56 -21 -47 -3 -53 -1 -63 22 -22 47 -95 58 -133 20
-9 -9 -16 -32 -16 -55 l0 -39 -3260 0 -3260 0 0 44 c0 49 -16 72 -56 82 -33 9
-79 -12 -93 -42 -10 -23 -16 -25 -63 -22 -42 2 -54 7 -56 21 -3 16 -1 17 16 6
26 -16 52 2 52 37 0 57 -82 75 -120 27z m77 -39 c-3 -3 -12 -4 -19 -1 -8 3 -5
6 6 6 11 1 17 -2 13 -5z m7030 -10 c-3 -3 -12 -4 -19 -1 -8 3 -5 6 6 6 11 1
17 -2 13 -5z m-6837 -129 c0 -48 -4 -76 -13 -84 -24 -20 -37 9 -37 84 0 75 13
104 37 84 9 -8 13 -36 13 -84z m6670 -10 c0 -48 -4 -76 -13 -84 -24 -20 -37 9
-37 84 0 75 13 104 37 84 9 -8 13 -36 13 -84z m-6863 -131 c-3 -3 -12 -4 -19
-1 -8 3 -5 6 6 6 11 1 17 -2 13 -5z m7030 -10 c-3 -3 -12 -4 -19 -1 -8 3 -5 6
6 6 11 1 17 -2 13 -5z"/>
<path d="M10244 6263 c22 -45 21 -47 -26 -60 -37 -10 -135 -79 -126 -89 2 -2
26 3 53 11 29 9 90 15 152 15 l105 0 -49 36 c-26 19 -65 54 -86 77 -37 40 -38
40 -23 10z"/>
<path d="M2695 6250 c-26 -28 -13 -82 31 -125 19 -19 41 -35 49 -35 8 0 15 -4
15 -10 0 -5 -7 -10 -15 -10 -25 0 -84 -68 -91 -105 -11 -59 42 -98 80 -59 11
11 15 32 15 72 -2 49 2 58 25 79 l27 23 -27 23 c-23 21 -27 30 -25 79 1 81
-41 116 -84 68z"/>
<path d="M10036 6254 c-11 -11 -15 -32 -15 -72 2 -49 -2 -58 -25 -79 l-27 -23
27 -23 c23 -21 27 -30 25 -79 0 -40 4 -61 15 -72 38 -39 91 0 80 59 -7 37 -66
105 -91 105 -25 0 -17 14 15 29 37 16 80 76 80 112 0 48 -52 75 -84 43z"/>
<path d="M4000 6215 l0 -25 549 0 c443 0 551 3 560 13 28 35 0 37 -561 37
l-548 0 0 -25z"/>
<path d="M7692 6228 c-8 -8 -9 -15 -1 -25 9 -10 117 -13 560 -13 l549 0 0 25
0 25 -548 0 c-407 0 -551 -3 -560 -12z"/>
<path d="M2655 6035 c-22 -8 -88 -14 -148 -14 l-109 -1 49 -36 c26 -19 65 -54
86 -77 37 -40 38 -40 23 -10 -22 45 -21 47 27 60 25 7 62 29 88 52 47 43 46
46 -16 26z"/>
<path d="M1976 974 c-103 -25 -166 -78 -166 -140 0 -62 67 -117 220 -182 18
-8 -52 -11 -267 -11 l-293 -1 0 39 c0 23 -7 46 -16 55 -38 38 -111 27 -133
-20 -10 -23 -16 -25 -63 -22 -42 2 -54 7 -56 21 -3 16 -1 17 16 6 41 -26 72
39 36 75 -8 9 -31 16 -49 16 -73 0 -99 -100 -41 -158 20 -20 38 -27 86 -30 82
-6 82 -28 0 -34 -48 -3 -66 -10 -86 -30 -58 -58 -32 -158 41 -158 18 0 41 7
49 16 36 36 5 101 -36 75 -17 -11 -19 -10 -16 6 2 14 14 19 56 21 47 3 53 1
63 -22 14 -30 60 -51 93 -42 41 10 56 33 56 85 l0 47 1578 1 c867 1 1609 -1
1647 -5 l70 -8 -80 -41 c-102 -52 -219 -89 -331 -104 -104 -14 -185 -8 -274
20 -78 25 -128 26 -158 5 -46 -32 -18 -75 64 -100 63 -19 245 -18 342 2 100
20 239 68 326 111 77 39 96 39 38 0 -193 -127 -458 -197 -745 -197 -313 1
-575 62 -748 176 -45 29 -84 52 -87 49 -9 -8 48 -93 83 -124 74 -65 206 -117
371 -147 135 -25 466 -25 609 -1 289 50 485 136 670 294 l80 68 1472 0 1471 0
44 -33 c243 -182 429 -268 703 -322 140 -28 393 -38 532 -20 261 32 468 123
501 220 14 39 5 43 -32 16 -129 -97 -393 -163 -691 -173 -246 -8 -444 25 -634
106 -60 26 -174 90 -160 91 3 0 48 -18 100 -41 119 -52 252 -87 355 -95 201
-16 359 64 268 135 -35 27 -58 26 -77 -3 -9 -13 -33 -30 -54 -37 -55 -20 -262
-17 -340 4 -87 23 -208 71 -273 109 -47 26 -52 32 -35 38 11 4 748 8 1638 8
l1617 0 0 -48 c0 -53 15 -76 56 -86 33 -9 79 12 93 42 10 23 16 25 63 22 42
-2 54 -7 56 -21 3 -16 1 -17 -16 -6 -41 26 -72 -39 -36 -75 8 -9 31 -16 49
-16 48 0 79 41 72 94 -8 56 -43 88 -106 94 -31 3 -51 9 -51 17 0 8 20 14 51
17 63 6 98 38 106 94 7 53 -24 94 -72 94 -18 0 -41 -7 -49 -16 -36 -36 -5
-101 36 -75 17 11 19 10 16 -6 -2 -14 -14 -19 -56 -21 -47 -3 -53 -1 -63 22
-22 47 -95 58 -133 20 -9 -9 -16 -32 -16 -55 l0 -39 -287 1 -288 0 67 25 c123
47 185 125 155 196 -18 42 -40 62 -102 90 -42 19 -67 23 -160 23 -100 0 -115
-3 -166 -27 -97 -48 -105 -112 -19 -156 59 -30 173 -28 216 4 46 34 39 45 -12
23 -84 -38 -199 -7 -199 52 0 18 11 30 45 49 38 21 58 25 130 25 130 0 220
-49 220 -119 0 -48 -30 -80 -113 -121 -137 -67 -70 -65 -1544 -65 l-1331 0
-87 40 c-200 92 -393 137 -625 147 -289 12 -554 -46 -714 -156 -41 -28 -51
-31 -126 -31 -74 0 -85 3 -126 31 -147 101 -354 149 -643 149 -241 0 -474 -47
-650 -131 l-104 -49 -1341 0 c-1291 0 -1344 1 -1415 20 -149 38 -251 107 -251
169 0 85 156 148 298 121 83 -17 124 -43 120 -77 -2 -14 -15 -35 -31 -47 -38
-28 -140 -30 -181 -3 -36 24 -30 1 6 -26 55 -41 178 -31 238 19 72 61 10 136
-135 163 -75 14 -126 13 -199 -5z m3919 -228 c107 -19 250 -56 320 -85 l50
-20 -625 0 -625 1 61 29 c76 37 226 75 341 88 116 13 365 6 478 -13z m1579 -6
c54 -11 142 -38 195 -58 l96 -37 -307 -3 c-169 -1 -448 -1 -620 0 l-313 3 90
32 c206 74 335 93 575 88 139 -2 209 -9 284 -25z m-6247 4 c-3 -3 -12 -4 -19
-1 -8 3 -5 6 6 6 11 1 17 -2 13 -5z m10370 0 c-3 -3 -12 -4 -19 -1 -8 3 -5 6
6 6 11 1 17 -2 13 -5z m-10177 -139 c0 -48 -4 -76 -13 -84 -24 -20 -37 9 -37
84 0 75 13 104 37 84 9 -8 13 -36 13 -84z m10010 0 c0 -48 -4 -76 -13 -84 -24
-20 -37 9 -37 84 0 75 13 104 37 84 9 -8 13 -36 13 -84z m-10203 -141 c-3 -3
-12 -4 -19 -1 -8 3 -5 6 6 6 11 1 17 -2 13 -5z m10370 0 c-3 -3 -12 -4 -19 -1
-8 3 -5 6 6 6 11 1 17 -2 13 -5z"/>
<path d="M11890 871 c0 -41 105 -136 207 -187 l78 -39 -185 0 c-139 0 -191 -3
-209 -14 l-25 -14 25 -12 c42 -22 138 -35 268 -36 115 0 123 -2 91 -13 -61
-23 -154 -73 -194 -105 -21 -17 -41 -31 -44 -31 -13 0 30 38 92 81 l69 49 -59
0 c-77 0 -179 17 -215 36 -16 8 -29 11 -29 6 0 -17 67 -72 113 -92 26 -11 47
-23 47 -26 0 -3 -7 -16 -16 -29 -9 -14 -13 -25 -10 -25 4 0 0 -10 -8 -22 -9
-12 -16 -32 -16 -45 0 -20 7 -17 73 33 39 30 117 77 172 103 93 46 247 101
281 101 25 0 15 17 -15 23 -97 20 -316 139 -428 235 l-63 53 0 -30z"/>
<path d="M855 822 c-38 -29 -115 -75 -170 -101 -93 -46 -247 -101 -281 -101
-25 0 -15 -17 15 -23 97 -20 316 -139 429 -235 l62 -53 0 30 c0 41 -105 136
-207 187 l-78 39 185 0 c139 0 191 3 209 14 l25 14 -25 12 c-42 22 -138 35
-268 36 -115 0 -123 2 -91 13 61 23 154 73 194 105 21 17 41 31 44 31 13 0
-30 -38 -92 -81 l-69 -49 59 0 c77 0 179 -17 215 -36 16 -8 29 -11 29 -6 0 17
-67 72 -112 92 -27 11 -48 23 -48 26 0 3 7 16 16 29 9 14 13 25 10 25 -4 0 1
11 10 24 8 14 14 33 12 43 -2 15 -14 10 -73 -35z"/>
<path d="M11914 793 c22 -45 21 -47 -26 -60 -37 -10 -135 -79 -126 -89 2 -2
26 3 53 11 29 9 90 15 152 15 l105 0 -49 36 c-26 19 -65 54 -86 77 -37 40 -38
40 -23 10z"/>
<path d="M11706 784 c-11 -11 -15 -32 -15 -72 2 -49 -2 -58 -25 -79 l-27 -23
27 -23 c23 -21 27 -30 25 -79 0 -40 4 -61 15 -72 38 -39 91 0 80 59 -7 37 -66
105 -91 105 -8 0 -15 5 -15 10 0 6 7 10 15 10 25 0 84 68 91 105 11 59 -42 98
-80 59z"/>
<path d="M1025 770 c-26 -28 -13 -82 31 -125 19 -19 41 -35 49 -35 8 0 15 -4
15 -10 0 -5 -7 -10 -15 -10 -25 0 -84 -68 -91 -105 -11 -59 42 -98 80 -59 11
11 15 32 15 72 -2 49 2 58 25 79 l27 23 -27 23 c-23 21 -27 30 -25 79 1 81
-41 116 -84 68z"/>
<path d="M985 555 c-22 -8 -88 -14 -148 -14 l-109 -1 49 -36 c26 -19 65 -54
86 -77 37 -40 38 -40 23 -10 -22 45 -21 47 27 60 25 7 62 29 88 52 47 43 46
46 -16 26z"/>
<path d="M2202 540 c-291 -37 -455 -171 -369 -301 13 -21 45 -45 82 -64 57
-29 66 -30 185 -30 113 0 130 2 174 25 28 14 59 38 70 53 19 26 19 30 6 54
-28 49 -75 68 -172 68 -77 0 -90 -3 -110 -22 -30 -30 -21 -35 32 -17 61 21
133 14 165 -16 32 -30 32 -53 -1 -79 -40 -32 -100 -44 -190 -38 -97 6 -169 37
-197 84 -16 28 -17 35 -4 66 43 101 221 157 501 157 253 0 447 -33 701 -119
65 -23 124 -41 130 -41 15 1 -58 45 -140 86 -98 49 -230 90 -365 114 -132 24
-387 34 -498 20z"/>
<path d="M10161 539 c-194 -25 -356 -87 -516 -197 -27 -19 -41 -31 -30 -27
103 41 317 107 399 124 287 59 617 55 793 -11 111 -41 161 -120 113 -180 -36
-46 -114 -73 -215 -73 -101 0 -147 17 -168 62 -10 23 -8 28 16 49 49 42 167
44 208 3 24 -24 34 -19 24 11 -10 31 -64 50 -143 50 -124 0 -202 -64 -155
-129 90 -123 428 -96 499 40 63 122 -129 244 -440 278 -109 12 -291 12 -385 0z"/>
<path d="M6510 499 c196 -177 432 -237 657 -168 35 11 75 31 90 45 21 19 23
24 9 20 -10 -4 -61 -12 -112 -18 -107 -14 -240 -2 -366 33 -73 20 -274 103
-292 120 -6 5 -15 9 -20 9 -6 -1 9 -19 34 -41z"/>
<path d="M6200 486 c-197 -91 -339 -122 -515 -112 -60 3 -123 9 -139 12 -39 9
-26 -10 24 -36 140 -71 369 -63 546 19 57 27 214 160 189 160 -5 1 -53 -19
-105 -43z"/>
<path d="M6339 410 c-26 -26 -29 -34 -23 -67 7 -41 67 -169 89 -192 11 -12 20
-1 54 68 23 45 44 101 47 125 6 39 3 48 -19 70 -39 39 -108 37 -148 -4z"/>
</g>
</svg>
