<?xml version="1.0" standalone="no"?>
<!DOCTYPE svg PUBLIC "-//W3C//DTD SVG 20010904//EN"
 "http://www.w3.org/TR/2001/REC-SVG-20010904/DTD/svg10.dtd">
<svg version="1.0" xmlns="http://www.w3.org/2000/svg"
 width="1012.000000pt" height="512.000000pt" viewBox="0 0 1012.000000 512.000000"
 preserveAspectRatio="xMidYMid meet">

<g transform="translate(0.000000,512.000000) scale(0.100000,-0.100000)"
fill="#6995c5" stroke="none">
<path d="M1091 4823 c-18 -9 -53 -42 -77 -72 -45 -57 -58 -87 -26 -58 25 23
86 47 120 47 34 0 82 -34 82 -57 0 -14 -3 -14 -20 2 -15 14 -27 16 -57 10 -21
-5 -44 -7 -50 -6 -18 3 -4 -28 18 -39 10 -6 29 -10 42 -10 29 0 52 -23 43 -45
-7 -20 -29 -19 -73 5 -21 11 -45 20 -55 20 -20 0 -58 -46 -58 -70 0 -24 38
-70 58 -70 10 0 34 9 55 20 44 24 66 25 73 5 8 -21 -14 -45 -41 -45 -34 0 -54
-10 -66 -32 -8 -15 -7 -19 3 -17 7 1 30 -1 51 -6 30 -6 42 -4 57 10 17 16 20
16 20 2 0 -23 -48 -57 -82 -57 -34 0 -95 24 -120 47 -32 29 -19 -1 26 -58 73
-94 146 -112 186 -46 21 34 25 74 11 122 -16 58 26 108 70 84 19 -10 21 -16
15 -71 -8 -67 2 -88 41 -88 28 0 63 16 63 30 0 5 -9 12 -21 15 -13 4 -32 33
-54 81 l-34 74 34 74 c22 48 41 77 54 81 12 3 21 10 21 15 0 14 -35 30 -63 30
-39 0 -49 -21 -41 -88 6 -55 4 -61 -15 -71 -15 -9 -27 -9 -42 -1 -29 16 -37
45 -25 99 11 58 3 95 -29 127 -28 28 -48 30 -94 7z"/>
<path d="M8925 4816 c-32 -32 -40 -69 -29 -127 12 -54 4 -83 -25 -99 -15 -8
-27 -8 -42 1 -19 10 -21 16 -15 71 8 67 -2 88 -41 88 -28 0 -63 -16 -63 -30 0
-5 9 -12 21 -15 13 -4 32 -33 54 -81 l34 -74 -34 -74 c-22 -48 -41 -77 -54
-81 -12 -3 -21 -10 -21 -15 0 -14 35 -30 63 -30 39 0 49 21 41 88 -6 55 -4 61
15 71 44 24 86 -26 70 -84 -14 -48 -10 -88 11 -122 40 -66 113 -48 186 46 45
57 58 87 26 58 -25 -23 -86 -47 -120 -47 -34 0 -82 34 -82 57 0 14 3 14 20 -2
15 -14 27 -16 57 -10 21 5 44 7 51 6 10 -2 11 2 3 17 -12 22 -32 32 -66 32
-27 0 -49 24 -41 45 7 20 29 19 73 -5 21 -11 45 -20 55 -20 20 0 58 46 58 70
0 24 -38 70 -58 70 -10 0 -34 -9 -55 -20 -44 -24 -66 -25 -73 -5 -9 22 14 45
43 45 13 0 32 4 42 10 22 11 36 42 18 39 -6 -1 -29 1 -50 6 -30 6 -42 4 -57
-10 -17 -16 -20 -16 -20 -2 0 23 48 57 82 57 34 0 95 -24 120 -47 32 -29 19 1
-26 58 -41 53 -94 89 -130 89 -10 0 -28 -11 -41 -24z"/>
<path d="M1877 4693 c-24 -23 17 -88 65 -106 7 -2 10 -8 6 -12 -8 -9 -184 10
-281 31 -92 19 -190 18 -233 -2 -101 -48 -39 -124 99 -124 36 0 96 6 134 14
97 21 273 40 281 31 4 -4 1 -10 -6 -12 -7 -3 -26 -16 -43 -30 -22 -19 -29 -33
-27 -52 3 -24 7 -26 58 -29 48 -2 53 0 38 12 -11 7 -18 27 -18 45 0 27 6 35
38 49 35 16 237 17 3067 17 2830 0 3032 -1 3068 -17 31 -14 37 -22 37 -49 0
-18 -7 -38 -17 -45 -16 -12 -11 -14 37 -12 51 3 55 5 58 29 2 19 -5 33 -27 52
-17 14 -36 27 -43 30 -7 2 -10 8 -6 12 8 9 184 -10 281 -31 38 -8 98 -14 134
-14 138 0 200 76 99 124 -43 20 -141 21 -233 2 -97 -21 -273 -40 -281 -31 -4
4 -1 10 6 12 7 3 26 16 43 30 22 19 29 33 27 52 -3 24 -7 26 -58 29 -48 2 -53
0 -37 -12 10 -7 17 -27 17 -45 0 -27 -6 -35 -37 -49 -36 -16 -238 -17 -3068
-17 -2830 0 -3032 1 -3067 17 -32 14 -38 22 -38 49 0 19 7 37 18 45 15 12 11
13 -34 14 -28 0 -54 -3 -57 -7z"/>
<path d="M1091 833 c-18 -9 -53 -42 -77 -72 -45 -57 -58 -87 -26 -58 25 23 86
47 120 47 34 0 82 -34 82 -57 0 -14 -3 -14 -20 2 -15 14 -27 16 -57 10 -21 -5
-44 -7 -50 -6 -18 3 -4 -28 18 -39 10 -6 29 -10 42 -10 29 0 52 -23 43 -45 -7
-20 -29 -19 -73 5 -21 11 -45 20 -55 20 -20 0 -58 -46 -58 -70 0 -24 38 -70
58 -70 10 0 34 9 55 20 44 24 66 25 73 5 8 -21 -14 -45 -41 -45 -34 0 -54 -10
-66 -32 -8 -15 -7 -19 3 -17 7 1 30 -1 51 -6 30 -6 42 -4 57 10 17 16 20 16
20 2 0 -23 -48 -57 -82 -57 -34 0 -95 24 -120 47 -32 29 -19 -1 26 -58 73 -94
146 -112 186 -46 21 34 25 74 11 122 -16 58 26 108 70 84 19 -10 21 -16 15
-71 -8 -67 2 -88 41 -88 28 0 63 16 63 30 0 5 -9 12 -21 15 -13 4 -32 33 -54
81 l-34 74 34 74 c22 48 41 77 54 81 12 3 21 10 21 15 0 14 -35 30 -63 30 -39
0 -49 -21 -41 -88 6 -55 4 -61 -15 -71 -15 -9 -27 -9 -42 -1 -29 16 -37 45
-25 99 11 58 3 95 -29 127 -28 28 -48 30 -94 7z"/>
<path d="M8925 826 c-32 -32 -40 -69 -29 -127 12 -54 4 -83 -25 -99 -15 -8
-27 -8 -42 1 -19 10 -21 16 -15 71 8 67 -2 88 -41 88 -28 0 -63 -16 -63 -30 0
-5 9 -12 21 -15 13 -4 32 -33 54 -81 l34 -74 -34 -74 c-22 -48 -41 -77 -54
-81 -12 -3 -21 -10 -21 -15 0 -14 35 -30 63 -30 39 0 49 21 41 88 -6 55 -4 61
15 71 44 24 86 -26 70 -84 -14 -48 -10 -88 11 -122 40 -66 113 -48 186 46 45
57 58 87 26 58 -25 -23 -86 -47 -120 -47 -34 0 -82 34 -82 57 0 14 3 14 20 -2
15 -14 27 -16 57 -10 21 5 44 7 51 6 10 -2 11 2 3 17 -12 22 -32 32 -66 32
-27 0 -49 24 -41 45 7 20 29 19 73 -5 21 -11 45 -20 55 -20 20 0 58 46 58 70
0 24 -38 70 -58 70 -10 0 -34 -9 -55 -20 -44 -24 -66 -25 -73 -5 -9 22 14 45
43 45 13 0 32 4 42 10 22 11 36 42 18 39 -6 -1 -29 1 -50 6 -30 6 -42 4 -57
-10 -17 -16 -20 -16 -20 -2 0 23 48 57 82 57 34 0 95 -24 120 -47 32 -29 19 1
-26 58 -41 53 -94 89 -130 89 -10 0 -28 -11 -41 -24z"/>
<path d="M1877 703 c-24 -23 17 -88 65 -106 7 -2 10 -8 6 -12 -8 -9 -184 10
-281 31 -92 19 -190 18 -233 -2 -101 -48 -39 -124 99 -124 36 0 96 6 134 14
97 21 273 40 281 31 4 -4 1 -10 -6 -12 -7 -3 -26 -16 -43 -30 -22 -19 -29 -33
-27 -52 3 -24 7 -26 58 -29 48 -2 53 0 38 12 -11 7 -18 27 -18 45 0 27 6 35
38 49 35 16 237 17 3067 17 2830 0 3032 -1 3068 -17 31 -14 37 -22 37 -49 0
-18 -7 -38 -17 -45 -16 -12 -11 -14 37 -12 51 3 55 5 58 29 2 19 -5 33 -27 52
-17 14 -36 27 -43 30 -7 2 -10 8 -6 12 8 9 184 -10 281 -31 92 -19 190 -18
233 2 101 48 39 124 -99 124 -36 0 -96 -6 -134 -14 -97 -21 -273 -40 -281 -31
-4 4 -1 10 6 12 7 3 26 16 43 30 22 19 29 33 27 52 -3 24 -7 26 -58 29 -48 2
-53 0 -37 -12 10 -7 17 -27 17 -45 0 -27 -6 -35 -37 -49 -36 -16 -238 -17
-3068 -17 -2830 0 -3032 1 -3067 17 -32 14 -38 22 -38 49 0 19 7 37 18 45 15
12 11 13 -34 14 -28 0 -54 -3 -57 -7z"/>
</g>
</svg>
