<?xml version="1.0" standalone="no"?>
<!DOCTYPE svg PUBLIC "-//W3C//DTD SVG 20010904//EN"
 "http://www.w3.org/TR/2001/REC-SVG-20010904/DTD/svg10.dtd">
<svg version="1.0" xmlns="http://www.w3.org/2000/svg"
 width="1280.000000pt" height="720.000000pt" viewBox="0 0 1280.000000 720.000000"
 preserveAspectRatio="xMidYMid meet">

<g transform="translate(0.000000,720.000000) scale(0.100000,-0.100000)"
fill="#000000" stroke="none">
<path d="M6253 6842 c-57 -77 -78 -157 -62 -232 8 -39 23 -64 63 -108 90 -97
103 -141 63 -202 -13 -19 -26 -43 -30 -52 -8 -21 16 -41 41 -34 19 7 62 81 62
110 0 9 5 16 10 16 6 0 10 -7 10 -16 0 -29 43 -103 62 -110 25 -7 49 13 41 34
-4 9 -17 33 -30 52 -40 61 -27 105 63 202 40 44 55 69 63 108 16 77 -9 166
-68 240 -26 32 -27 17 -2 -18 25 -36 51 -115 51 -157 0 -54 -17 -86 -84 -155
-76 -78 -96 -107 -96 -137 0 -13 -4 -23 -10 -23 -5 0 -10 10 -10 23 0 30 -20
59 -96 137 -67 69 -84 101 -84 155 0 43 26 121 52 158 26 37 18 45 -9 9z"/>
<path d="M6148 6829 c-62 -31 -88 -67 -88 -119 l0 -31 -64 7 c-78 8 -86 -1
-52 -62 30 -54 32 -64 11 -64 -8 0 -32 -17 -53 -38 -30 -30 -41 -51 -50 -97
-23 -113 -20 -115 54 -46 78 71 150 108 228 117 31 4 56 10 56 13 0 3 -9 35
-20 69 -11 35 -20 79 -20 97 0 44 25 111 56 152 31 41 17 42 -58 2z"/>
<path d="M6594 6827 c31 -41 56 -108 56 -152 0 -18 -9 -62 -20 -97 -11 -34
-20 -66 -20 -69 0 -3 25 -9 56 -13 78 -9 150 -46 228 -117 74 -69 77 -67 54
46 -9 46 -20 67 -50 97 -21 21 -45 38 -53 38 -21 0 -19 11 10 61 39 69 36 73
-45 65 l-70 -6 0 30 c0 53 -26 88 -90 120 -76 38 -87 38 -56 -3z"/>
<path d="M6367 6700 c-40 -102 -44 -143 -18 -169 21 -21 66 -28 87 -13 21 14
34 52 28 79 -8 38 -56 163 -64 168 -3 2 -18 -27 -33 -65z"/>
<path d="M5571 6487 c-40 -20 -64 -62 -69 -119 -5 -66 22 -110 88 -146 38 -20
56 -23 120 -20 94 4 137 25 249 117 111 93 196 122 249 85 49 -34 8 -116 -64
-130 -18 -3 -56 -1 -83 6 -55 13 -71 8 -71 -19 0 -30 27 -43 98 -48 56 -4 74
-1 112 19 106 54 114 195 13 229 -79 26 -163 -8 -288 -116 -106 -92 -153 -116
-234 -116 -67 -1 -107 16 -145 61 -46 56 -29 153 34 185 36 19 61 19 105 1 19
-8 35 -13 35 -10 0 10 -70 34 -97 34 -15 0 -39 -6 -52 -13z"/>
<path d="M7113 6486 c-44 -20 -42 -29 2 -10 44 18 69 18 105 -1 63 -32 80
-129 34 -185 -38 -45 -78 -62 -145 -61 -81 0 -128 24 -234 116 -125 108 -209
142 -288 116 -101 -34 -93 -175 13 -229 38 -20 56 -23 112 -19 71 5 98 18 98
48 0 27 -16 32 -71 19 -27 -7 -65 -9 -83 -6 -72 14 -113 96 -64 130 53 37 138
8 249 -85 112 -92 155 -113 249 -117 64 -3 82 0 120 20 25 14 55 39 68 58 37
55 25 148 -26 194 -28 24 -98 30 -139 12z"/>
<path d="M11890 6341 c0 -41 105 -136 207 -187 l78 -39 -185 0 c-139 0 -191
-3 -209 -14 l-25 -14 25 -12 c42 -22 138 -35 268 -36 115 0 123 -2 91 -13 -61
-23 -154 -73 -194 -105 -21 -17 -41 -31 -44 -31 -13 0 30 38 92 81 l69 49 -59
0 c-77 0 -179 17 -215 36 -16 8 -29 11 -29 6 0 -17 67 -72 113 -92 26 -11 47
-23 47 -26 0 -3 -7 -16 -16 -29 -9 -14 -13 -25 -10 -25 4 0 0 -10 -8 -22 -9
-12 -16 -32 -16 -45 0 -20 7 -17 73 33 39 30 117 77 172 103 93 46 247 101
281 101 25 0 15 17 -15 23 -97 20 -316 139 -428 235 l-63 53 0 -30z"/>
<path d="M855 6292 c-38 -29 -115 -75 -170 -101 -93 -46 -247 -101 -281 -101
-25 0 -15 -17 15 -23 97 -20 316 -139 429 -235 l62 -53 0 30 c0 41 -105 136
-207 187 l-78 39 185 0 c139 0 191 3 209 14 l25 14 -25 12 c-42 22 -138 35
-268 36 -115 0 -123 2 -91 13 61 23 154 73 194 105 21 17 41 31 44 31 13 0
-30 -38 -92 -81 l-69 -49 59 0 c77 0 179 -17 215 -36 16 -8 29 -11 29 -6 0 17
-67 72 -112 92 -27 11 -48 23 -48 26 0 3 7 16 16 29 9 14 13 25 10 25 -4 0 1
11 10 24 8 14 14 33 12 43 -2 15 -14 10 -73 -35z"/>
<path d="M11914 6263 c22 -45 21 -47 -26 -60 -37 -10 -135 -79 -126 -89 2 -2
26 3 53 11 29 9 90 15 152 15 l105 0 -49 36 c-26 19 -65 54 -86 77 -37 40 -38
40 -23 10z"/>
<path d="M1150 6253 c-28 -36 -22 -95 14 -131 20 -20 38 -27 86 -30 39 -3 60
-9 60 -17 0 -8 -21 -14 -60 -17 -48 -3 -66 -10 -86 -30 -58 -58 -32 -158 41
-158 18 0 41 7 49 16 36 36 5 101 -36 75 -17 -11 -19 -10 -16 6 2 14 14 19 56
21 47 3 53 1 63 -22 14 -30 60 -51 93 -42 41 10 56 33 56 87 l0 49 4930 0
4930 0 0 -49 c0 -54 15 -77 56 -87 33 -9 79 12 93 42 10 23 16 25 63 22 42 -2
54 -7 56 -21 3 -16 1 -17 -16 -6 -41 26 -72 -39 -36 -75 8 -9 31 -16 49 -16
48 0 79 41 72 94 -8 56 -43 88 -106 94 -68 6 -68 28 0 34 63 6 98 38 106 94 7
53 -24 94 -72 94 -18 0 -41 -7 -49 -16 -36 -36 -5 -101 36 -75 17 11 19 10 16
-6 -2 -14 -14 -19 -56 -21 -47 -3 -53 -1 -63 22 -22 47 -95 58 -133 20 -9 -9
-16 -32 -16 -55 l0 -39 -4930 0 -4930 0 0 39 c0 23 -7 46 -16 55 -38 38 -111
27 -133 -20 -10 -23 -16 -25 -63 -22 -42 2 -54 7 -56 21 -3 16 -1 17 16 6 26
-16 52 2 52 37 0 57 -82 75 -120 27z m77 -39 c-3 -3 -12 -4 -19 -1 -8 3 -5 6
6 6 11 1 17 -2 13 -5z m10370 0 c-3 -3 -12 -4 -19 -1 -8 3 -5 6 6 6 11 1 17
-2 13 -5z m-10177 -139 c0 -48 -4 -76 -13 -84 -24 -20 -37 9 -37 84 0 75 13
104 37 84 9 -8 13 -36 13 -84z m10010 0 c0 -48 -4 -76 -13 -84 -24 -20 -37 9
-37 84 0 75 13 104 37 84 9 -8 13 -36 13 -84z m-10203 -141 c-3 -3 -12 -4 -19
-1 -8 3 -5 6 6 6 11 1 17 -2 13 -5z m10370 0 c-3 -3 -12 -4 -19 -1 -8 3 -5 6
6 6 11 1 17 -2 13 -5z"/>
<path d="M11706 6254 c-11 -11 -15 -32 -15 -72 2 -49 -2 -58 -25 -79 l-27 -23
27 -23 c23 -21 27 -30 25 -79 0 -40 4 -61 15 -72 38 -39 91 0 80 59 -7 37 -66
105 -91 105 -8 0 -15 5 -15 10 0 6 7 10 15 10 25 0 84 68 91 105 11 59 -42 98
-80 59z"/>
<path d="M1025 6240 c-26 -28 -13 -82 31 -125 19 -19 41 -35 49 -35 8 0 15 -4
15 -10 0 -5 -7 -10 -15 -10 -25 0 -84 -68 -91 -105 -11 -59 42 -98 80 -59 11
11 15 32 15 72 -2 49 2 58 25 79 l27 23 -27 23 c-23 21 -27 30 -25 79 1 81
-41 116 -84 68z"/>
<path d="M3054 6219 c-3 -6 -2 -15 3 -20 5 -5 503 -8 1239 -7 1085 3 1229 5
1229 18 0 13 -145 15 -1232 18 -881 1 -1234 -1 -1239 -9z"/>
<path d="M7274 6219 c-3 -6 -2 -15 3 -20 5 -5 503 -8 1239 -7 1085 3 1229 5
1229 18 0 13 -145 15 -1232 18 -881 1 -1234 -1 -1239 -9z"/>
<path d="M985 6025 c-22 -8 -88 -14 -148 -14 l-109 -1 49 -36 c26 -19 65 -54
86 -77 37 -40 38 -40 23 -10 -22 45 -21 47 27 60 25 7 62 29 88 52 47 43 46
46 -16 26z"/>
<path d="M11890 871 c0 -41 105 -136 207 -187 l78 -39 -185 0 c-139 0 -191 -3
-209 -14 l-25 -14 25 -12 c42 -22 138 -35 268 -36 115 0 123 -2 91 -13 -61
-23 -154 -73 -194 -105 -21 -17 -41 -31 -44 -31 -13 0 30 38 92 81 l69 49 -59
0 c-77 0 -179 17 -215 36 -16 8 -29 11 -29 6 0 -17 67 -72 113 -92 26 -11 47
-23 47 -26 0 -3 -7 -16 -16 -29 -9 -14 -13 -25 -10 -25 4 0 0 -10 -8 -22 -9
-12 -16 -32 -16 -45 0 -20 7 -17 73 33 39 30 117 77 172 103 93 46 247 101
281 101 25 0 15 17 -15 23 -97 20 -316 139 -428 235 l-63 53 0 -30z"/>
<path d="M855 822 c-38 -29 -115 -75 -170 -101 -93 -46 -247 -101 -281 -101
-25 0 -15 -17 15 -23 97 -20 316 -139 429 -235 l62 -53 0 30 c0 41 -105 136
-207 187 l-78 39 185 0 c139 0 191 3 209 14 l25 14 -25 12 c-42 22 -138 35
-268 36 -115 0 -123 2 -91 13 61 23 154 73 194 105 21 17 41 31 44 31 13 0
-30 -38 -92 -81 l-69 -49 59 0 c77 0 179 -17 215 -36 16 -8 29 -11 29 -6 0 17
-67 72 -112 92 -27 11 -48 23 -48 26 0 3 7 16 16 29 9 14 13 25 10 25 -4 0 1
11 10 24 8 14 14 33 12 43 -2 15 -14 10 -73 -35z"/>
<path d="M11914 793 c22 -45 21 -47 -26 -60 -37 -10 -135 -79 -126 -89 2 -2
26 3 53 11 29 9 90 15 152 15 l105 0 -49 36 c-26 19 -65 54 -86 77 -37 40 -38
40 -23 10z"/>
<path d="M1150 783 c-28 -36 -22 -95 14 -131 20 -20 38 -27 86 -30 39 -3 60
-9 60 -17 0 -8 -21 -14 -60 -17 -48 -3 -66 -10 -86 -30 -58 -58 -32 -158 41
-158 18 0 41 7 49 16 36 36 5 101 -36 75 -17 -11 -19 -10 -16 6 2 14 14 19 56
21 47 3 53 1 63 -22 14 -30 60 -51 93 -42 41 10 56 33 56 87 l0 49 4930 0
4930 0 0 -49 c0 -54 15 -77 56 -87 33 -9 79 12 93 42 10 23 16 25 63 22 42 -2
54 -7 56 -21 3 -16 1 -17 -16 -6 -41 26 -72 -39 -36 -75 8 -9 31 -16 49 -16
48 0 79 41 72 94 -8 56 -43 88 -106 94 -68 6 -68 28 0 34 63 6 98 38 106 94 7
53 -24 94 -72 94 -18 0 -41 -7 -49 -16 -36 -36 -5 -101 36 -75 17 11 19 10 16
-6 -2 -14 -14 -19 -56 -21 -47 -3 -53 -1 -63 22 -22 47 -95 58 -133 20 -9 -9
-16 -32 -16 -55 l0 -39 -4930 0 -4930 0 0 39 c0 23 -7 46 -16 55 -38 38 -111
27 -133 -20 -10 -23 -16 -25 -63 -22 -42 2 -54 7 -56 21 -3 16 -1 17 16 6 26
-16 52 2 52 37 0 57 -82 75 -120 27z m77 -39 c-3 -3 -12 -4 -19 -1 -8 3 -5 6
6 6 11 1 17 -2 13 -5z m10370 0 c-3 -3 -12 -4 -19 -1 -8 3 -5 6 6 6 11 1 17
-2 13 -5z m-10177 -139 c0 -48 -4 -76 -13 -84 -24 -20 -37 9 -37 84 0 75 13
104 37 84 9 -8 13 -36 13 -84z m10010 0 c0 -48 -4 -76 -13 -84 -24 -20 -37 9
-37 84 0 75 13 104 37 84 9 -8 13 -36 13 -84z m-10203 -141 c-3 -3 -12 -4 -19
-1 -8 3 -5 6 6 6 11 1 17 -2 13 -5z m10370 0 c-3 -3 -12 -4 -19 -1 -8 3 -5 6
6 6 11 1 17 -2 13 -5z"/>
<path d="M11706 784 c-11 -11 -15 -32 -15 -72 2 -49 -2 -58 -25 -79 l-27 -23
27 -23 c23 -21 27 -30 25 -79 0 -40 4 -61 15 -72 38 -39 91 0 80 59 -7 37 -66
105 -91 105 -8 0 -15 5 -15 10 0 6 7 10 15 10 25 0 84 68 91 105 11 59 -42 98
-80 59z"/>
<path d="M1025 770 c-26 -28 -13 -82 31 -125 19 -19 41 -35 49 -35 8 0 15 -4
15 -10 0 -5 -7 -10 -15 -10 -25 0 -84 -68 -91 -105 -11 -59 42 -98 80 -59 11
11 15 32 15 72 -2 49 2 58 25 79 l27 23 -27 23 c-23 21 -27 30 -25 79 1 81
-41 116 -84 68z"/>
<path d="M985 555 c-22 -8 -88 -14 -148 -14 l-109 -1 49 -36 c26 -19 65 -54
86 -77 37 -40 38 -40 23 -10 -22 45 -21 47 27 60 25 7 62 29 88 52 47 43 46
46 -16 26z"/>
</g>
</svg>
