<?xml version="1.0" standalone="no"?>
<!DOCTYPE svg PUBLIC "-//W3C//DTD SVG 20010904//EN"
 "http://www.w3.org/TR/2001/REC-SVG-20010904/DTD/svg10.dtd">
<svg version="1.0" xmlns="http://www.w3.org/2000/svg"
 width="1200.000000pt" height="1200.000000pt" viewBox="0 0 1200.000000 1200.000000"
 preserveAspectRatio="xMidYMid meet">

<g transform="translate(0.000000,1200.000000) scale(0.100000,-0.100000)"
fill="#000000" stroke="none">
<path d="M2245 11557 c-21 -12 -53 -42 -70 -65 -26 -37 -30 -53 -30 -105 0
-78 23 -127 74 -155 79 -45 171 -19 206 58 15 34 16 46 7 79 -17 55 -47 89
-91 102 -47 14 -93 -6 -116 -51 -20 -39 -19 -44 7 -26 51 36 159 -1 174 -59
14 -55 -64 -113 -134 -100 -20 4 -50 21 -68 39 -117 117 -14 308 150 277 109
-20 161 -76 160 -172 -1 -71 -29 -130 -89 -189 -42 -42 -49 -44 -110 -48 -73
-5 -159 9 -249 40 -135 47 -300 -15 -374 -140 -24 -42 -27 -56 -26 -127 1 -44
5 -114 9 -156 6 -70 5 -80 -21 -134 -38 -81 -42 -138 -14 -203 20 -47 77 -109
126 -139 18 -11 18 -12 -5 -35 -16 -16 -25 -19 -28 -10 -3 7 -19 34 -36 59
-72 108 -189 137 -314 79 -58 -26 -69 -28 -140 -22 -43 3 -98 9 -122 12 -114
16 -221 -49 -281 -169 -44 -90 -48 -145 -16 -245 34 -107 48 -198 39 -258 -12
-93 -127 -184 -232 -184 -75 0 -123 28 -152 87 -31 64 -33 159 -3 199 69 94
185 102 262 20 39 -43 44 -102 12 -154 -43 -69 -99 -62 -140 18 -24 47 -25 62
-5 100 13 26 14 30 1 30 -27 0 -76 -59 -76 -91 0 -134 196 -177 253 -56 22 47
21 82 -4 134 -54 113 -241 115 -316 4 -59 -87 -50 -185 21 -257 68 -69 156
-80 249 -32 48 24 182 150 203 190 8 15 14 46 14 70 l0 42 51 -49 c71 -69 191
-231 231 -312 40 -82 51 -189 24 -241 -54 -104 -188 -156 -307 -120 -22 6 -39
14 -39 18 0 16 90 89 133 108 50 22 87 70 87 112 0 120 -107 212 -211 181 -22
-7 -58 -28 -80 -48 -83 -75 -100 -159 -53 -264 21 -45 24 -62 15 -73 -6 -7
-23 -47 -37 -87 -20 -60 -25 -93 -25 -172 -1 -107 -6 -91 90 -271 l52 -99 -6
-86 c-3 -47 -8 -552 -10 -1121 l-4 -1035 24 90 25 90 0 847 c0 885 2 921 44
1022 42 101 24 206 -65 382 -47 95 -62 134 -66 181 -6 63 12 137 43 181 14 21
16 21 41 5 16 -11 53 -18 107 -21 74 -4 88 -2 134 22 63 32 118 86 143 140 26
57 25 160 -1 227 -25 63 -97 176 -156 246 -50 58 -67 99 -89 214 -29 156 -17
240 43 291 27 22 97 46 108 36 2 -3 -5 -26 -15 -54 -41 -106 -36 -194 15 -261
30 -40 114 -81 179 -88 l50 -6 -52 26 c-68 34 -129 95 -159 158 -38 81 -35 90
64 187 95 94 181 145 262 155 l45 6 -44 -19 c-155 -66 -203 -263 -80 -330 60
-33 82 -56 110 -116 38 -80 40 -162 6 -201 -26 -31 -100 -45 -135 -26 -27 15
-55 67 -49 92 3 11 1 19 -3 19 -14 0 -23 -66 -17 -116 15 -137 192 -149 304
-20 69 78 79 175 28 276 -31 60 -64 83 -156 105 -88 22 -149 64 -149 104 0 65
46 147 104 182 85 52 171 46 200 -15 21 -45 21 -48 -11 -44 -23 2 -28 8 -28
31 1 26 0 27 -12 11 -19 -26 -16 -68 5 -87 26 -23 84 -21 115 3 l26 21 12 -23
c7 -13 16 -64 19 -113 12 -152 42 -185 197 -215 54 -10 107 -22 117 -26 13 -5
17 -4 12 4 -3 6 -13 60 -20 121 -20 161 -58 201 -206 217 -36 3 -78 13 -93 21
l-28 14 21 29 c12 17 24 45 27 64 9 56 -44 92 -104 69 -15 -6 -13 -8 12 -13
24 -4 30 -10 30 -29 0 -35 -19 -36 -57 -2 -29 26 -33 35 -31 74 4 106 102 207
201 207 69 0 132 -91 132 -191 0 -55 36 -99 109 -136 78 -40 127 -42 196 -9
101 48 163 141 152 232 -9 81 -79 124 -176 108 l-46 -7 36 -9 c68 -17 93 -67
75 -145 -10 -44 -40 -63 -101 -63 -90 0 -212 75 -235 144 -43 132 -250 111
-327 -34 -16 -30 -24 -37 -25 -24 -1 10 -5 -6 -9 -36 -5 -42 -7 -32 -4 45 5
198 90 319 245 350 l35 7 -40 -29 c-79 -59 -176 -178 -209 -257 -27 -64 -18
-65 13 -1 36 77 110 175 167 221 42 35 47 36 97 30 103 -14 176 -67 218 -160
24 -52 25 -21 3 55 -21 69 -81 132 -143 149 -51 13 -122 6 -198 -20 l-53 -18
0 22 c0 40 43 110 80 129 29 15 52 18 135 14 146 -6 252 -37 318 -94 74 -64
181 -133 246 -159 67 -28 163 -32 219 -9 50 21 118 89 149 149 32 63 34 162 5
229 l-20 44 61 29 c99 48 149 42 299 -33 68 -34 147 -69 177 -78 64 -18 158
-20 198 -4 111 44 82 43 1028 49 876 6 902 7 970 27 l70 21 -995 1 c-723 1
-1022 -2 -1093 -11 -123 -15 -149 -9 -298 74 -105 57 -118 62 -190 66 -88 5
-156 -8 -245 -48 l-60 -27 -50 25 c-72 38 -149 37 -206 -3 -23 -17 -58 -50
-76 -75 -32 -41 -34 -49 -30 -105 5 -84 40 -129 115 -151 87 -25 142 -2 175
73 19 44 92 133 108 133 14 0 30 -61 30 -110 0 -82 -25 -142 -79 -193 -57 -54
-80 -61 -165 -55 -47 4 -82 15 -132 42 -86 45 -222 147 -294 220 l-54 56 35 0
c51 0 107 35 178 113 102 111 133 206 96 295 -46 108 -179 156 -280 99z m569
-371 c28 -18 28 -18 8 -39 -10 -12 -32 -46 -48 -76 -45 -84 -107 -111 -174
-76 -31 16 -60 61 -60 92 0 19 67 90 105 112 29 17 137 9 169 -13z m-870 -127
c-71 -56 -132 -167 -135 -243 0 -12 -25 -43 -60 -75 l-59 -53 0 67 c0 106 15
141 94 221 52 52 86 77 126 92 74 28 79 27 34 -9z m152 -704 c56 -38 163 -68
229 -63 47 2 53 1 38 -10 -20 -14 -79 -32 -109 -32 -59 0 -168 62 -194 111
-14 25 -8 24 36 -6z m-455 -22 c8 -8 -1 -9 -36 -1 -79 17 -169 -15 -275 -97
-66 -52 -111 -98 -139 -145 -27 -46 -27 -18 0 56 37 99 124 170 239 194 60 12
196 8 211 -7z m-381 -52 c-44 -43 -69 -60 -97 -66 -69 -12 -143 -53 -198 -110
l-54 -55 14 39 c22 63 41 94 91 150 70 78 117 99 231 100 l71 1 -58 -59z m740
-142 c18 -5 5 -8 -41 -8 -43 -1 -72 4 -85 14 -17 13 -13 14 41 8 33 -3 71 -10
85 -14z m-134 -63 c-3 -16 -7 -45 -7 -65 l-1 -36 -8 30 c-4 17 -8 55 -8 85 -1
51 0 54 14 35 10 -13 13 -31 10 -49z m106 43 c76 2 108 -7 108 -31 0 -5 -36
-8 -85 -7 -76 3 -88 6 -108 28 -12 13 -16 21 -8 16 8 -4 49 -7 93 -6z m-65
-134 c-3 -46 -1 -71 3 -60 5 11 9 43 9 72 1 51 13 74 27 52 5 -8 3 -9 -7 -4
-11 6 -12 5 -1 -6 14 -16 17 -135 2 -144 -14 -8 -44 10 -62 37 -12 19 -13 35
-5 91 8 59 11 66 24 55 12 -10 15 -29 10 -93z m187 52 c-22 -13 -109 -3 -130
14 -15 12 -9 15 52 19 53 4 72 2 82 -10 10 -11 9 -16 -4 -23z m-104 -32 c19
-19 32 -35 29 -35 -3 0 -20 16 -39 35 -19 19 -32 35 -29 35 3 0 20 -16 39 -35z
m130 -7 c0 -15 -97 -9 -110 6 -10 13 -3 15 42 18 48 3 67 -4 68 -24z m-125
-78 c-8 -52 -8 -52 -26 -45 -10 4 -13 21 -11 66 4 60 4 60 24 42 16 -15 18
-25 13 -63z m125 40 c0 -15 -7 -20 -29 -20 -16 0 -34 6 -40 14 -12 14 -6 17
57 25 6 0 12 -8 12 -19z m-452 -36 c30 -36 62 -118 62 -158 0 -33 -29 -113
-46 -127 -13 -10 -13 -8 -4 15 23 62 4 199 -39 271 -27 45 -11 45 27 -1z m372
-25 c0 -23 -5 -29 -21 -29 -17 0 -20 4 -15 23 3 12 6 30 6 41 0 15 3 16 15 6
8 -7 15 -25 15 -41z m84 5 c10 -38 1 -40 -24 -5 -21 30 -21 31 -2 31 13 0 22
-9 26 -26z m-17 -50 c-1 -1 -14 0 -29 3 -22 4 -28 11 -28 31 l0 26 30 -29 c16
-16 29 -30 27 -31z m-1144 -385 c55 -25 75 -116 36 -170 -11 -16 -47 -43 -78
-58 -31 -16 -63 -37 -71 -45 -12 -15 -14 -15 -25 1 -25 36 -36 92 -29 140 5
37 17 57 52 95 46 50 70 58 115 37z"/>
<path d="M1005 11060 c-10 -33 32 -106 88 -154 66 -55 137 -100 137 -85 0 27
-66 146 -103 186 -39 42 -84 73 -106 73 -5 0 -13 -9 -16 -20z"/>
<path d="M1269 11023 c-18 -20 -18 -158 -1 -175 9 -9 15 -3 26 24 43 102 25
211 -25 151z m31 -85 c-6 -29 -15 -57 -20 -62 -14 -14 -13 110 1 137 l12 21 8
-22 c5 -12 4 -46 -1 -74z"/>
<path d="M1453 11001 c-60 -43 -166 -191 -149 -208 11 -11 140 72 192 124 44
43 55 60 52 81 -4 39 -43 41 -95 3z"/>
<path d="M1010 10795 c-23 -28 4 -40 90 -40 96 0 123 16 67 40 -48 20 -140 20
-157 0z m157 -14 c14 -8 -1 -10 -64 -11 -77 0 -94 5 -75 24 10 11 115 1 139
-13z"/>
<path d="M1380 10773 c-42 -8 -46 -22 -9 -37 79 -32 169 -28 169 9 0 29 -78
43 -160 28z m140 -28 c-7 -15 -127 -12 -142 3 -11 11 2 12 67 10 49 -2 78 -7
75 -13z"/>
<path d="M1123 10680 c-49 -30 -93 -67 -112 -92 -35 -47 -38 -60 -16 -78 23
-19 85 13 143 74 44 46 102 127 102 141 0 16 -46 -1 -117 -45z"/>
<path d="M1320 10705 c0 -52 99 -185 163 -220 107 -57 75 77 -36 156 -88 62
-127 82 -127 64z"/>
<path d="M1249 10663 c-19 -50 -22 -136 -5 -158 14 -19 16 -19 33 -2 14 14 17
32 16 82 -3 103 -22 136 -44 78z m31 -80 c0 -56 -11 -85 -27 -69 -8 8 -7 87 2
127 11 48 25 16 25 -58z"/>
<path d="M2188 10089 c-22 -13 -24 -62 -2 -83 21 -21 47 -20 67 2 45 49 -8
115 -65 81z"/>
<path d="M1897 9812 c-22 -24 -21 -55 1 -75 22 -20 42 -21 64 -4 28 21 31 54
9 76 -26 26 -53 27 -74 3z"/>
<path d="M2190 9780 c-11 -11 -20 -26 -20 -33 0 -24 31 -57 54 -57 26 0 56 28
56 53 0 21 -35 57 -55 57 -8 0 -24 -9 -35 -20z"/>
</g>
</svg>
