<?xml version="1.0" standalone="no"?>
<!DOCTYPE svg PUBLIC "-//W3C//DTD SVG 20010904//EN"
 "http://www.w3.org/TR/2001/REC-SVG-20010904/DTD/svg10.dtd">
<svg version="1.0" xmlns="http://www.w3.org/2000/svg"
 width="1400.000000pt" height="1400.000000pt" viewBox="0 0 1400.000000 1400.000000"
 preserveAspectRatio="xMidYMid meet">

<g transform="translate(0.000000,1400.000000) scale(0.100000,-0.100000)"
fill="#000000" stroke="none">
<path d="M6952 13510 c-90 -18 -143 -76 -150 -163 -4 -47 1 -61 44 -142 95
-181 104 -202 131 -304 30 -116 28 -117 67 27 15 55 52 144 91 219 58 113 65
132 65 185 0 62 -9 88 -44 126 -43 48 -122 68 -204 52z"/>
<path d="M6285 13247 c-94 -43 -86 -119 18 -162 21 -9 84 -27 142 -40 139 -33
205 -59 281 -111 66 -45 81 -44 69 4 -20 84 -154 220 -271 279 -85 41 -186 54
-239 30z"/>
<path d="M7530 13241 c-81 -26 -147 -68 -222 -142 -73 -71 -127 -165 -111
-194 8 -13 14 -11 43 11 65 48 146 82 281 119 164 44 235 75 251 109 17 38 -3
73 -55 96 -52 24 -115 24 -187 1z"/>
<path d="M5350 13176 c-110 -31 -182 -88 -201 -159 -49 -181 177 -309 462
-263 53 9 104 19 114 23 50 19 -11 -24 -162 -115 -411 -245 -559 -300 -777
-290 -177 9 -276 67 -276 162 0 29 7 52 21 69 36 46 181 75 223 44 17 -13 17
-14 -8 -30 -34 -23 -34 -59 0 -86 20 -16 41 -21 86 -21 78 0 124 20 144 63 15
31 15 36 -1 66 -50 98 -323 123 -470 43 -66 -36 -95 -80 -95 -145 0 -63 28
-110 89 -148 l45 -29 -1262 0 -1262 0 0 34 c0 19 -7 42 -16 50 -38 38 -111 27
-133 -20 -10 -23 -16 -25 -63 -22 -42 2 -54 7 -56 21 -3 16 -1 17 16 6 41 -26
72 39 36 75 -8 9 -31 16 -49 16 -73 0 -99 -100 -41 -158 20 -20 38 -27 86 -30
82 -6 82 -28 0 -34 -48 -3 -66 -10 -86 -30 -58 -58 -32 -158 41 -158 18 0 41
7 49 16 36 36 5 101 -36 75 -17 -11 -19 -10 -16 6 2 14 14 19 56 21 47 3 53 1
63 -21 11 -25 47 -47 74 -47 48 0 85 44 85 100 l0 30 4975 0 4975 0 0 -30 c0
-56 37 -100 85 -100 27 0 63 22 74 47 10 22 16 24 63 21 42 -2 54 -7 56 -21 3
-16 1 -17 -16 -6 -41 26 -72 -39 -36 -75 8 -9 31 -16 49 -16 73 0 99 100 41
158 -20 20 -38 27 -86 30 -82 6 -82 28 0 34 48 3 66 10 86 30 58 58 32 158
-41 158 -18 0 -41 -7 -49 -16 -36 -36 -5 -101 36 -75 17 11 19 10 16 -6 -2
-14 -14 -19 -56 -21 -47 -3 -53 -1 -63 22 -14 30 -60 51 -93 42 -41 -10 -56
-33 -57 -89 -1 -29 -4 -43 -6 -32 -4 20 -11 20 -1260 17 l-1257 -2 47 31 c69
46 104 112 93 175 -19 98 -154 164 -336 164 -131 0 -240 -57 -240 -124 0 -61
53 -96 145 -96 69 0 102 13 117 46 11 25 10 29 -21 54 l-33 28 23 12 c31 17
140 7 181 -17 47 -27 73 -83 59 -126 -32 -97 -160 -145 -355 -134 -181 10
-343 77 -706 291 -155 91 -208 127 -169 113 9 -3 65 -13 124 -22 90 -14 120
-15 188 -5 187 27 287 104 287 220 0 85 -57 152 -166 193 -51 19 -79 22 -199
22 -125 0 -145 -2 -190 -23 -59 -27 -111 -74 -119 -108 -17 -66 65 -121 169
-112 64 5 95 28 95 69 0 33 -40 59 -91 59 -26 0 -29 2 -20 14 58 70 271 63
370 -11 71 -54 76 -141 11 -203 -77 -74 -214 -88 -437 -45 -295 56 -602 84
-751 67 -241 -28 -419 -106 -505 -223 l-30 -40 -17 28 c-67 108 -259 203 -469
234 -166 24 -469 -1 -807 -67 -179 -34 -293 -32 -377 9 -91 45 -123 129 -77
204 60 99 330 132 400 49 11 -14 8 -16 -22 -16 -44 0 -88 -33 -88 -66 0 -17
10 -31 33 -45 42 -27 155 -22 195 8 72 54 47 127 -62 183 -67 34 -73 35 -195
37 -79 1 -143 -3 -171 -11z m1151 -351 c127 -19 221 -51 294 -100 84 -56 118
-109 123 -189 8 -117 -45 -167 -182 -173 -68 -4 -86 -1 -113 16 -46 29 -44 65
6 91 21 11 26 10 42 -11 36 -48 142 -14 124 40 -21 67 -190 68 -257 1 -32 -33
-38 -82 -12 -118 l15 -22 -117 0 -117 0 40 29 c52 37 73 68 73 104 0 119 -184
201 -344 153 -63 -19 -86 -41 -86 -82 0 -51 40 -77 112 -72 68 5 88 20 88 64
0 31 3 34 29 34 37 0 93 -39 106 -73 30 -86 -105 -156 -277 -144 -143 10 -226
69 -236 167 -12 125 80 223 250 266 133 34 294 41 439 19z m1403 -9 c146 -28
260 -101 287 -183 6 -19 9 -62 7 -94 -4 -51 -9 -64 -38 -94 -52 -53 -107 -70
-230 -70 -93 0 -112 3 -162 27 -69 32 -96 75 -79 121 12 32 65 67 101 67 20 0
25 -5 27 -27 2 -43 45 -73 104 -73 42 0 55 5 80 29 36 37 37 55 1 91 -84 84
-317 55 -387 -48 -42 -62 -26 -119 47 -172 l41 -30 -118 0 -118 0 18 20 c31
34 25 87 -12 120 -61 55 -192 62 -240 14 -29 -29 -19 -57 28 -73 34 -12 63 -2
86 28 11 14 15 15 40 1 18 -10 29 -25 31 -43 5 -40 -45 -67 -123 -67 -84 0
-125 14 -165 55 -33 34 -35 40 -35 104 0 58 4 75 30 116 55 88 192 159 372
190 95 17 293 12 407 -9z m-2154 -128 c-1 -7 -7 -24 -15 -38 -8 -14 -14 -52
-15 -84 0 -75 31 -131 97 -175 l46 -31 -373 0 c-205 0 -371 2 -369 4 2 2 40
18 85 35 82 32 235 116 424 234 112 70 120 74 120 55z m2684 -92 c189 -114
262 -153 381 -202 l80 -34 -369 0 -369 0 41 30 c66 47 97 103 97 170 -1 39 -7
67 -23 94 -23 39 -26 46 -16 46 3 0 83 -47 178 -104z m-6657 -142 c-3 -3 -12
-4 -19 -1 -8 3 -5 6 6 6 11 1 17 -2 13 -5z m10480 0 c-3 -3 -12 -4 -19 -1 -8
3 -5 6 6 6 11 1 17 -2 13 -5z m-5232 -24 c3 -10 20 -31 36 -45 l31 -25 -82 0
-81 0 38 45 c43 50 49 53 58 25z m-5055 -115 c0 -48 -4 -76 -13 -84 -24 -20
-37 9 -37 84 0 75 13 104 37 84 9 -8 13 -36 13 -84z m10120 0 c0 -48 -4 -76
-13 -84 -24 -20 -37 9 -37 84 0 75 13 104 37 84 9 -8 13 -36 13 -84z m-10313
-141 c-3 -3 -12 -4 -19 -1 -8 3 -5 6 6 6 11 1 17 -2 13 -5z m10480 0 c-3 -3
-12 -4 -19 -1 -8 3 -5 6 6 6 11 1 17 -2 13 -5z"/>
<path d="M1405 12532 c-38 -29 -115 -75 -170 -101 -93 -46 -247 -101 -281
-101 -25 0 -15 -17 15 -23 97 -20 316 -139 429 -235 l62 -53 0 30 c0 41 -105
136 -207 187 l-78 39 185 0 c139 0 191 3 209 14 l25 14 -25 12 c-42 22 -138
35 -268 36 -115 0 -123 2 -91 13 61 23 154 73 194 105 21 17 41 31 44 31 13 0
-30 -38 -92 -81 l-69 -49 59 0 c77 0 179 -17 215 -36 16 -8 29 -11 29 -6 0 17
-67 72 -112 92 -27 11 -48 23 -48 26 0 3 7 16 16 29 9 14 13 25 10 25 -4 0 1
11 10 24 8 14 14 33 12 43 -2 15 -14 10 -73 -35z"/>
<path d="M12530 12567 c0 -13 7 -33 16 -45 8 -12 12 -22 8 -22 -3 0 1 -11 10
-25 9 -13 16 -26 16 -29 0 -3 -21 -15 -47 -26 -46 -20 -113 -75 -113 -92 0 -5
13 -2 29 6 36 19 138 36 215 36 l59 0 -69 49 c-62 43 -105 81 -92 81 3 0 23
-14 44 -31 40 -32 133 -82 194 -105 32 -11 24 -13 -91 -13 -130 -1 -226 -14
-268 -36 l-25 -12 25 -14 c18 -11 70 -14 209 -14 l185 0 -78 -39 c-102 -51
-207 -146 -207 -187 l0 -30 63 53 c112 96 331 215 428 235 30 6 40 23 15 23
-34 0 -188 55 -281 101 -55 26 -133 73 -172 103 -66 50 -73 53 -73 33z"/>
<path d="M1575 12480 c-26 -28 -13 -82 31 -125 19 -19 41 -35 49 -35 8 0 15
-4 15 -10 0 -5 -7 -10 -15 -10 -25 0 -84 -68 -91 -105 -11 -59 42 -98 80 -59
11 11 15 32 15 72 -2 49 2 58 25 79 l27 23 -27 23 c-23 21 -27 30 -25 79 1 81
-41 116 -84 68z"/>
<path d="M12366 12484 c-11 -11 -15 -32 -15 -72 2 -49 -2 -58 -25 -79 l-27
-23 27 -23 c23 -21 27 -30 25 -79 0 -40 4 -61 15 -72 38 -39 91 0 80 59 -7 37
-66 105 -91 105 -8 0 -15 5 -15 10 0 6 7 10 15 10 25 0 84 68 91 105 11 59
-42 98 -80 59z"/>
<path d="M1535 12265 c-22 -8 -88 -14 -148 -14 l-109 -1 49 -36 c26 -19 65
-54 86 -77 37 -40 38 -40 23 -10 -22 45 -21 47 27 60 25 7 62 29 88 52 47 43
46 46 -16 26z"/>
<path d="M12459 12239 c26 -23 63 -45 88 -52 48 -13 49 -15 27 -60 -15 -30
-14 -30 23 10 21 23 60 58 86 77 l49 36 -105 0 c-63 0 -123 6 -153 15 -27 8
-51 15 -54 14 -3 0 15 -18 39 -40z"/>
<path d="M1405 962 c-38 -29 -115 -75 -170 -101 -93 -46 -247 -101 -281 -101
-25 0 -15 -17 15 -23 97 -20 316 -139 429 -235 l62 -53 0 30 c0 41 -105 136
-207 187 l-78 39 185 0 c139 0 191 3 209 14 l25 14 -25 12 c-42 22 -138 35
-268 36 -115 0 -123 2 -91 13 61 23 154 73 194 105 21 17 41 31 44 31 13 0
-30 -38 -92 -81 l-69 -49 59 0 c77 0 179 -17 215 -36 16 -8 29 -11 29 -6 0 17
-67 72 -112 92 -27 11 -48 23 -48 26 0 3 7 16 16 29 9 14 13 25 10 25 -4 0 1
11 10 24 8 14 14 33 12 43 -2 15 -14 10 -73 -35z"/>
<path d="M12530 997 c0 -13 7 -33 16 -45 8 -12 12 -22 8 -22 -3 0 1 -11 10
-25 9 -13 16 -26 16 -29 0 -3 -21 -15 -47 -26 -46 -20 -113 -75 -113 -92 0 -5
13 -2 29 6 36 19 138 36 215 36 l59 0 -69 49 c-62 43 -105 81 -92 81 3 0 23
-14 44 -31 40 -32 133 -82 194 -105 32 -11 24 -13 -91 -13 -130 -1 -226 -14
-268 -36 l-25 -12 25 -14 c18 -11 70 -14 209 -14 l185 0 -78 -39 c-102 -51
-207 -146 -207 -187 l0 -30 63 53 c112 96 331 215 428 235 30 6 40 23 15 23
-34 0 -188 55 -281 101 -55 26 -133 73 -172 103 -66 50 -73 53 -73 33z"/>
<path d="M1700 923 c-28 -36 -22 -95 14 -131 20 -20 38 -27 86 -30 39 -3 60
-9 60 -17 0 -8 -21 -14 -60 -17 -48 -3 -66 -10 -86 -30 -58 -58 -32 -158 41
-158 18 0 41 7 49 16 36 36 5 101 -36 75 -17 -11 -19 -10 -16 6 2 14 14 19 56
21 47 3 53 1 63 -21 11 -25 47 -47 74 -47 48 0 85 44 85 100 l0 30 4975 0
4975 0 0 -30 c0 -56 37 -100 85 -100 27 0 63 22 74 47 10 22 16 24 63 21 42
-2 54 -7 56 -21 3 -16 1 -17 -16 -6 -41 26 -72 -39 -36 -75 8 -9 31 -16 49
-16 73 0 99 100 41 158 -20 20 -38 27 -86 30 -82 6 -82 28 0 34 48 3 66 10 86
30 58 58 32 158 -41 158 -18 0 -41 -7 -49 -16 -36 -36 -5 -101 36 -75 17 11
19 10 16 -6 -2 -14 -14 -19 -56 -21 -47 -3 -53 -1 -63 22 -14 30 -60 51 -93
42 -41 -10 -56 -33 -57 -89 -1 -29 -4 -43 -6 -32 -4 20 -11 20 -4983 17
l-4980 -2 0 34 c0 19 -7 42 -16 50 -38 38 -111 27 -133 -20 -10 -23 -16 -25
-63 -22 -42 2 -54 7 -56 21 -3 16 -1 17 16 6 26 -16 52 2 52 37 0 57 -82 75
-120 27z m77 -39 c-3 -3 -12 -4 -19 -1 -8 3 -5 6 6 6 11 1 17 -2 13 -5z
m10480 0 c-3 -3 -12 -4 -19 -1 -8 3 -5 6 6 6 11 1 17 -2 13 -5z m-10287 -139
c0 -48 -4 -76 -13 -84 -24 -20 -37 9 -37 84 0 75 13 104 37 84 9 -8 13 -36 13
-84z m10120 0 c0 -48 -4 -76 -13 -84 -24 -20 -37 9 -37 84 0 75 13 104 37 84
9 -8 13 -36 13 -84z m-10313 -141 c-3 -3 -12 -4 -19 -1 -8 3 -5 6 6 6 11 1 17
-2 13 -5z m10480 0 c-3 -3 -12 -4 -19 -1 -8 3 -5 6 6 6 11 1 17 -2 13 -5z"/>
<path d="M1575 910 c-26 -28 -13 -82 31 -125 19 -19 41 -35 49 -35 8 0 15 -4
15 -10 0 -5 -7 -10 -15 -10 -25 0 -84 -68 -91 -105 -11 -59 42 -98 80 -59 11
11 15 32 15 72 -2 49 2 58 25 79 l27 23 -27 23 c-23 21 -27 30 -25 79 1 81
-41 116 -84 68z"/>
<path d="M12366 914 c-11 -11 -15 -32 -15 -72 2 -49 -2 -58 -25 -79 l-27 -23
27 -23 c23 -21 27 -30 25 -79 0 -40 4 -61 15 -72 38 -39 91 0 80 59 -7 37 -66
105 -91 105 -8 0 -15 5 -15 10 0 6 7 10 15 10 25 0 84 68 91 105 11 59 -42 98
-80 59z"/>
<path d="M1535 695 c-22 -8 -88 -14 -148 -14 l-109 -1 49 -36 c26 -19 65 -54
86 -77 37 -40 38 -40 23 -10 -22 45 -21 47 27 60 25 7 62 29 88 52 47 43 46
46 -16 26z"/>
<path d="M12459 669 c26 -23 63 -45 88 -52 48 -13 49 -15 27 -60 -15 -30 -14
-30 23 10 21 23 60 58 86 77 l49 36 -105 0 c-63 0 -123 6 -153 15 -27 8 -51
15 -54 14 -3 0 15 -18 39 -40z"/>
</g>
</svg>
