<?xml version="1.0" standalone="no"?>
<!DOCTYPE svg PUBLIC "-//W3C//DTD SVG 20010904//EN"
 "http://www.w3.org/TR/2001/REC-SVG-20010904/DTD/svg10.dtd">
<svg version="1.0" xmlns="http://www.w3.org/2000/svg"
 width="1400.000000pt" height="1400.000000pt" viewBox="0 0 1400.000000 1400.000000"
 preserveAspectRatio="xMidYMid meet">

<g transform="translate(0.000000,1400.000000) scale(0.100000,-0.100000)"
fill="#6995c5" stroke="none">
<path d="M1395 7212 c-38 -29 -115 -75 -170 -101 -93 -46 -247 -101 -281 -101
-25 0 -15 -17 15 -23 97 -20 316 -139 429 -235 l62 -53 0 30 c0 41 -105 136
-207 187 l-78 39 185 0 c139 0 191 3 209 14 l25 14 -25 12 c-42 22 -138 35
-268 36 -115 0 -123 2 -91 13 61 23 154 73 194 105 21 17 41 31 44 31 13 0
-30 -38 -92 -81 l-69 -49 59 0 c77 0 179 -17 215 -36 16 -8 29 -11 29 -6 0 17
-67 72 -112 92 -27 11 -48 23 -48 26 0 3 7 16 16 29 9 14 13 25 10 25 -4 0 1
11 10 24 8 14 14 33 12 43 -2 15 -14 10 -73 -35z"/>
<path d="M12520 7247 c0 -13 7 -33 16 -45 8 -12 12 -22 8 -22 -3 0 1 -11 10
-25 9 -13 16 -26 16 -29 0 -3 -21 -15 -47 -26 -46 -20 -113 -75 -113 -92 0 -5
13 -2 29 6 36 19 138 36 215 36 l59 0 -69 49 c-62 43 -105 81 -92 81 3 0 23
-14 44 -31 40 -32 133 -82 194 -105 32 -11 24 -13 -91 -13 -130 -1 -226 -14
-268 -36 l-25 -12 25 -14 c18 -11 70 -14 209 -14 l185 0 -78 -39 c-102 -51
-207 -146 -207 -187 l0 -30 63 53 c112 96 331 215 428 235 30 6 40 23 15 23
-34 0 -188 55 -281 101 -55 26 -133 73 -172 103 -66 50 -73 53 -73 33z"/>
<path d="M1690 7173 c-28 -36 -22 -95 14 -131 20 -20 38 -27 86 -30 39 -3 60
-9 60 -17 0 -8 -21 -14 -60 -17 -48 -3 -66 -10 -86 -30 -58 -58 -32 -158 41
-158 18 0 41 7 49 16 36 36 5 101 -36 75 -17 -11 -19 -10 -16 6 2 14 14 19 56
21 47 3 53 1 63 -21 11 -25 47 -47 74 -47 27 0 63 22 74 46 l11 24 4975 0
4975 0 11 -24 c11 -24 47 -46 74 -46 27 0 63 22 74 47 10 22 16 24 63 21 42
-2 54 -7 56 -21 3 -16 1 -17 -16 -6 -41 26 -72 -39 -36 -75 8 -9 31 -16 49
-16 73 0 99 100 41 158 -20 20 -38 27 -86 30 -82 6 -82 28 0 34 48 3 66 10 86
30 58 58 32 158 -41 158 -18 0 -41 -7 -49 -16 -36 -36 -5 -101 36 -75 17 11
19 10 16 -6 -2 -14 -14 -19 -56 -21 -47 -3 -53 -1 -63 21 -11 25 -47 47 -74
47 -27 0 -63 -22 -74 -46 l-11 -24 -4975 0 -4975 0 -11 24 c-11 24 -47 46 -74
46 -27 0 -63 -22 -74 -47 -10 -22 -16 -24 -63 -21 -42 2 -54 7 -56 21 -3 16
-1 17 16 6 26 -16 52 2 52 37 0 57 -82 75 -120 27z m77 -39 c-3 -3 -12 -4 -19
-1 -8 3 -5 6 6 6 11 1 17 -2 13 -5z m10480 0 c-3 -3 -12 -4 -19 -1 -8 3 -5 6
6 6 11 1 17 -2 13 -5z m-10287 -139 c0 -48 -4 -76 -13 -84 -24 -20 -37 9 -37
84 0 75 13 104 37 84 9 -8 13 -36 13 -84z m10120 0 c0 -48 -4 -76 -13 -84 -24
-20 -37 9 -37 84 0 75 13 104 37 84 9 -8 13 -36 13 -84z m-110 0 c0 -13 -559
-15 -4975 -15 -4416 0 -4975 2 -4975 15 0 13 559 15 4975 15 4416 0 4975 -2
4975 -15z m-10203 -141 c-3 -3 -12 -4 -19 -1 -8 3 -5 6 6 6 11 1 17 -2 13 -5z
m10480 0 c-3 -3 -12 -4 -19 -1 -8 3 -5 6 6 6 11 1 17 -2 13 -5z"/>
<path d="M1565 7160 c-26 -28 -13 -82 31 -125 19 -19 41 -35 49 -35 8 0 15 -4
15 -10 0 -5 -7 -10 -15 -10 -25 0 -84 -68 -91 -105 -11 -59 42 -98 80 -59 11
11 15 32 15 72 -2 49 2 58 25 79 l27 23 -27 23 c-23 21 -27 30 -25 79 1 81
-41 116 -84 68z"/>
<path d="M12356 7164 c-11 -11 -15 -32 -15 -72 2 -49 -2 -58 -25 -79 l-27 -23
27 -23 c23 -21 27 -30 25 -79 0 -40 4 -61 15 -72 38 -39 91 0 80 59 -7 37 -66
105 -91 105 -8 0 -15 5 -15 10 0 6 7 10 15 10 25 0 84 68 91 105 11 59 -42 98
-80 59z"/>
<path d="M1525 6945 c-22 -8 -88 -14 -148 -14 l-109 -1 49 -36 c26 -19 65 -54
86 -77 37 -40 38 -40 23 -10 -22 45 -21 47 27 60 25 7 62 29 88 52 47 43 46
46 -16 26z"/>
<path d="M12449 6919 c26 -23 63 -45 88 -52 48 -13 49 -15 27 -60 -15 -30 -14
-30 23 10 21 23 60 58 86 77 l49 36 -105 0 c-63 0 -123 6 -153 15 -27 8 -51
15 -54 14 -3 0 15 -18 39 -40z"/>
</g>
</svg>
