<?xml version="1.0" standalone="no"?>
<!DOCTYPE svg PUBLIC "-//W3C//DTD SVG 20010904//EN"
 "http://www.w3.org/TR/2001/REC-SVG-20010904/DTD/svg10.dtd">
<svg version="1.0" xmlns="http://www.w3.org/2000/svg"
 width="1500.000000pt" height="1500.000000pt" viewBox="0 0 1500.000000 1500.000000"
 preserveAspectRatio="xMidYMid meet">

<g transform="translate(0.000000,1500.000000) scale(0.100000,-0.100000)"
fill="#000000" stroke="none">
<path d="M1160 9545 c-319 -64 -552 -338 -600 -706 -8 -59 -10 -485 -7 -1399
3 -1452 -1 -1357 67 -1527 90 -224 250 -372 480 -445 l75 -23 6320 0 6320 0
75 23 c231 73 390 221 481 447 68 170 64 76 64 1580 l0 1360 -23 90 c-79 302
-269 512 -537 592 -57 17 -331 18 -6355 20 -5158 1 -6307 -1 -6360 -12z
m12662 -126 c95 -20 268 -117 268 -150 0 -21 -80 -42 -206 -54 -105 -10 -141
-17 -175 -36 -86 -48 -127 -164 -100 -289 6 -29 9 -55 6 -58 -3 -3 -33 8 -66
24 -73 34 -150 113 -167 171 -32 108 12 233 83 233 30 0 31 -4 5 -37 -49 -62
-8 -133 75 -133 36 0 48 5 69 31 56 66 32 170 -47 208 -120 58 -269 -5 -311
-132 -21 -62 -20 -91 4 -168 37 -123 106 -199 229 -258 l63 -30 -43 -11 c-70
-19 -190 -39 -238 -40 -38 0 -42 -2 -31 -15 7 -9 34 -25 59 -37 25 -11 47 -22
49 -23 2 -2 -6 -21 -17 -44 -22 -41 -28 -115 -12 -140 16 -25 98 26 208 132
l103 100 -24 -54 c-13 -30 -31 -89 -41 -132 -9 -43 -19 -76 -22 -74 -5 5 14
128 24 153 3 9 -27 -11 -67 -44 -40 -34 -90 -70 -111 -79 -21 -10 -39 -21 -39
-25 0 -16 86 -7 129 12 53 24 51 24 51 0 0 -11 5 -30 12 -43 6 -12 14 -28 18
-36 15 -34 26 -17 38 57 17 106 57 224 67 197 69 -186 188 -285 356 -293 62
-3 83 0 115 16 82 42 124 113 124 208 0 113 -52 168 -154 161 -49 -3 -63 -8
-83 -31 -29 -34 -30 -80 -3 -123 16 -28 26 -33 57 -33 24 0 45 8 60 22 20 19
26 20 33 8 13 -21 -15 -67 -53 -87 -20 -10 -56 -17 -97 -17 -116 -1 -207 71
-260 203 -11 30 -19 56 -16 58 2 2 32 -1 65 -8 129 -25 237 11 287 96 21 37
27 65 35 157 10 115 31 212 49 223 13 8 85 -142 105 -220 33 -123 36 -292 32
-1542 -3 -1234 -3 -1238 -25 -1320 -24 -92 -68 -195 -100 -233 l-20 -25 -16
55 c-8 30 -20 106 -25 168 -11 135 -35 186 -107 228 -57 33 -154 42 -231 21
-29 -8 -53 -10 -53 -6 0 5 9 33 20 63 55 146 169 222 305 202 69 -11 127 -70
105 -106 -6 -9 -13 -7 -29 9 -50 50 -117 29 -135 -43 -13 -51 2 -87 44 -108
112 -56 210 16 210 154 0 54 -5 72 -32 118 -48 79 -97 102 -208 98 -69 -2 -96
-8 -142 -31 -79 -39 -142 -107 -187 -200 l-38 -79 -21 74 c-29 100 -41 157
-42 196 0 53 -17 40 -49 -40 -5 -13 -12 -30 -14 -40 -5 -15 -9 -14 -45 4 -28
13 -55 18 -89 16 -38 -3 -44 -5 -28 -12 36 -17 109 -69 159 -116 27 -25 46
-37 43 -27 -11 28 -28 149 -23 154 3 3 8 -8 11 -23 15 -75 38 -150 55 -187 11
-22 18 -42 17 -44 -2 -2 -23 19 -46 47 -68 80 -213 190 -251 190 -35 0 107
-166 214 -250 46 -36 44 -36 -35 -10 -33 12 -93 25 -132 30 l-72 9 90 -3 90
-3 -66 66 c-36 36 -76 84 -88 106 l-21 40 2 -52 3 -52 -95 6 c-182 10 -346
-61 -414 -181 -31 -54 -59 -151 -51 -179 4 -12 9 -29 11 -38 4 -13 -5 -18 -40
-23 -60 -9 -105 -42 -132 -96 -29 -56 -30 -94 -4 -163 27 -71 83 -134 144
-163 l51 -24 -5280 1 -5280 0 52 20 c117 45 205 195 175 298 -23 73 -77 121
-154 135 -43 8 -42 5 -27 42 24 64 -38 211 -116 276 -94 79 -245 119 -365 97
-64 -11 -87 -29 -37 -29 12 0 45 -11 73 -24 56 -26 74 -59 54 -97 -23 -41 31
-67 64 -30 16 18 18 18 52 1 19 -10 41 -23 48 -29 11 -9 15 -6 20 11 18 68 -9
123 -75 157 -24 12 -33 19 -19 15 50 -13 142 -68 170 -103 78 -94 80 -250 5
-309 -58 -46 -165 -16 -183 50 -5 18 -6 41 -4 51 4 17 6 17 24 -3 35 -38 108
-15 108 34 0 72 -87 91 -145 33 -91 -91 -59 -230 62 -271 54 -18 101 -10 170
30 40 23 44 24 73 9 40 -20 60 -63 60 -125 0 -58 -18 -99 -56 -129 -56 -44
-215 -21 -300 44 -79 60 -137 190 -153 337 l-8 83 -2 -76 c-2 -138 50 -287
131 -375 50 -54 93 -81 166 -105 57 -18 55 -18 -412 -18 -395 -1 -478 1 -529
15 -68 17 -145 54 -195 91 -26 20 -31 28 -21 39 19 23 101 42 215 50 136 9
194 35 239 108 26 43 30 59 30 125 0 42 -4 93 -8 114 -10 45 -3 46 70 13 119
-56 190 -160 180 -267 -6 -70 -28 -114 -68 -135 -43 -22 -62 -4 -31 29 29 30
30 87 2 112 -11 10 -41 20 -67 22 -41 4 -51 1 -70 -19 -42 -46 -47 -114 -13
-177 15 -29 105 -71 151 -71 53 0 151 53 182 98 40 58 53 121 39 188 -28 137
-105 236 -230 296 l-72 35 62 16 c86 22 174 37 221 37 39 0 40 0 22 20 -10 11
-26 20 -37 20 -10 0 -18 5 -18 10 0 6 -9 10 -19 10 -31 0 -34 16 -11 59 21 41
27 115 11 140 -15 23 -106 -35 -213 -138 l-98 -93 24 53 c13 30 31 89 41 132
9 43 19 76 21 74 6 -5 -12 -127 -22 -152 -4 -11 23 7 66 43 41 34 91 70 112
80 21 9 38 20 38 25 0 14 -70 7 -122 -13 -64 -24 -58 -24 -58 -2 0 22 -38 102
-48 102 -4 0 -13 -35 -20 -78 -16 -106 -57 -225 -67 -197 -63 175 -188 281
-343 293 -82 5 -130 -8 -179 -51 -49 -43 -73 -99 -73 -172 0 -107 51 -169 140
-168 84 1 129 47 116 118 -14 71 -76 97 -130 54 -39 -31 -55 -12 -29 33 37 65
164 84 252 38 54 -28 106 -87 140 -160 36 -75 39 -95 14 -85 -91 34 -210 30
-278 -9 -71 -42 -95 -93 -106 -228 -11 -120 -22 -175 -46 -223 l-16 -30 23 20
c31 27 53 80 85 205 35 135 47 157 88 168 28 7 113 -1 125 -12 2 -3 -51 -81
-117 -176 -67 -94 -121 -174 -121 -178 0 -4 90 83 200 193 161 161 200 196
206 181 5 -14 -36 -61 -187 -214 -126 -126 -176 -183 -144 -160 28 19 105 75
173 123 68 48 125 85 128 83 11 -12 19 -97 12 -125 -11 -41 -36 -55 -168 -88
-126 -32 -167 -48 -201 -81 l-26 -25 -35 38 c-86 96 -137 195 -168 327 -19 78
-20 128 -20 1417 l0 1336 24 96 c64 252 237 441 449 493 71 17 12586 20 12669
3z m348 -245 c0 -7 -5 -16 -11 -20 -18 -11 -45 -82 -74 -194 -35 -135 -47
-157 -88 -168 -28 -7 -113 1 -125 12 -2 3 51 82 118 176 66 95 120 174 118
176 -2 2 -89 -82 -193 -186 -105 -105 -193 -190 -197 -190 -31 0 17 60 180
224 122 124 170 177 137 154 -27 -19 -105 -75 -173 -123 -68 -48 -125 -85
-128 -83 -11 12 -19 97 -12 125 11 41 36 55 169 88 118 30 177 54 199 80 14
16 16 15 47 -20 18 -21 33 -44 33 -51z m-615 -490 c-117 -100 -168 -151 -196
-195 -19 -28 -35 -46 -37 -40 -5 16 33 68 107 143 64 67 65 68 31 58 -19 -6
-62 -9 -95 -9 l-60 1 86 14 c47 7 108 22 135 33 64 25 64 25 29 -5z m-11861
-2192 c-9 -15 -48 -59 -87 -99 l-69 -71 39 9 c21 5 63 8 93 8 55 -1 55 -1 -27
-15 -45 -7 -108 -23 -140 -34 l-58 -20 45 38 c85 70 149 134 182 182 34 49 54
51 22 2z m11641 -103 c9 -17 15 -32 13 -33 -2 -1 -29 -14 -61 -29 -32 -15 -56
-31 -53 -36 3 -4 40 -11 83 -14 78 -5 223 -36 223 -46 0 -3 -26 -17 -57 -30
-73 -32 -165 -118 -197 -184 -14 -29 -31 -80 -37 -114 -11 -55 -11 -69 5 -120
42 -134 188 -201 306 -140 59 30 83 65 83 120 -2 96 -62 144 -139 112 -21 -9
-42 -21 -46 -28 -14 -22 -8 -74 12 -100 25 -31 25 -37 1 -37 -33 0 -77 46 -91
95 -37 131 34 254 185 320 l57 26 -9 -43 c-4 -24 -8 -77 -8 -119 0 -66 4 -82
30 -125 45 -73 103 -99 239 -108 103 -7 206 -29 206 -44 0 -9 -83 -64 -136
-90 -98 -49 -133 -52 -600 -52 -435 1 -439 1 -387 19 174 60 286 252 282 484
l-2 72 -8 -79 c-27 -252 -137 -393 -326 -412 -123 -13 -183 38 -183 154 0 59
2 66 34 98 39 39 57 42 96 14 94 -67 228 -42 270 53 25 53 25 91 1 144 -32 70
-106 100 -154 63 -32 -26 -35 -62 -7 -90 27 -27 56 -25 85 4 21 21 24 22 28 6
8 -32 -4 -68 -35 -97 -40 -39 -113 -40 -153 -3 -46 43 -58 77 -53 149 8 107
58 180 161 232 l42 22 -32 -30 c-37 -35 -48 -69 -39 -119 6 -29 10 -33 21 -24
8 6 30 20 49 30 34 17 36 17 52 -1 33 -37 80 -16 63 28 -15 40 0 72 42 94 32
16 87 33 121 38 4 1 15 -13 23 -30z m580 -389 c104 -104 191 -188 193 -186 2
2 -52 81 -118 176 -67 94 -120 173 -118 176 12 11 97 19 126 12 40 -11 51 -33
93 -188 16 -63 39 -130 50 -148 25 -43 25 -45 -12 -87 -29 -32 -33 -34 -48
-21 -25 23 -77 42 -191 71 -133 34 -157 46 -168 89 -9 32 2 126 14 126 3 0 60
-39 127 -86 67 -48 145 -103 172 -122 33 -23 -15 30 -137 154 -163 164 -211
224 -180 224 4 0 92 -85 197 -190z"/>
<path d="M2084 9389 c-82 -28 -150 -81 -201 -157 -59 -87 -84 -174 -88 -297
-4 -97 -3 -98 5 -28 30 267 157 413 357 413 101 0 153 -51 153 -150 0 -63 -25
-114 -66 -132 -20 -9 -29 -9 -42 0 -40 30 -100 52 -140 52 -153 1 -228 -166
-122 -272 31 -31 45 -38 77 -38 26 0 46 6 56 18 36 40 9 102 -44 102 -29 0
-42 -8 -56 -34 -9 -17 -11 -17 -15 5 -18 96 90 163 178 110 47 -29 67 -81 62
-162 -8 -106 -70 -191 -173 -234 -55 -23 -80 -26 -36 -4 66 34 93 89 75 157
-5 17 -9 20 -20 11 -7 -6 -29 -19 -48 -29 -34 -17 -36 -17 -52 1 -33 37 -87
11 -64 -30 20 -38 2 -71 -54 -97 -28 -13 -61 -24 -73 -24 -52 0 -27 -18 42
-30 116 -20 247 13 346 86 87 63 151 206 129 285 -6 18 -10 35 -10 35 0 1 17
5 38 9 67 12 117 49 141 104 26 62 26 86 0 158 -30 77 -95 146 -165 173 -68
25 -112 25 -190 -1z"/>
<path d="M12754 9389 c-68 -26 -134 -97 -163 -172 -26 -72 -26 -96 0 -158 24
-55 74 -92 142 -104 20 -4 37 -8 37 -9 0 0 -4 -17 -10 -35 -22 -79 42 -222
129 -285 99 -73 230 -106 346 -86 69 12 94 30 42 30 -12 0 -45 11 -73 24 -56
26 -72 55 -55 99 17 44 -30 65 -63 28 -16 -18 -18 -18 -52 -1 -19 10 -41 23
-48 29 -11 9 -15 6 -20 -11 -18 -68 9 -123 75 -157 24 -12 33 -19 19 -15 -82
21 -158 76 -196 139 -36 62 -45 164 -19 220 60 125 252 80 227 -54 -4 -22 -6
-22 -15 -5 -14 26 -27 34 -58 34 -52 0 -79 -69 -41 -103 11 -10 35 -17 56 -17
31 0 46 7 76 38 106 106 31 273 -122 272 -40 0 -100 -22 -140 -52 -13 -9 -22
-9 -42 0 -40 18 -66 69 -66 130 0 100 51 152 151 152 202 0 329 -145 359 -413
8 -70 9 -69 5 28 -7 228 -116 396 -292 454 -78 26 -123 26 -189 0z"/>
<path d="M1462 9329 c-78 -39 -101 -143 -46 -208 21 -26 33 -31 69 -31 83 0
124 71 75 133 -26 33 -25 37 5 37 51 0 95 -74 95 -159 0 -98 -70 -193 -184
-247 -38 -19 -71 -32 -74 -30 -2 2 2 32 9 65 25 131 -13 242 -100 290 -34 19
-70 26 -175 36 -82 8 -146 19 -171 31 -22 10 -44 20 -50 22 -5 3 -1 -5 10 -18
27 -31 81 -54 204 -85 133 -33 158 -47 169 -88 7 -28 -1 -113 -12 -125 -3 -2
-60 35 -128 83 -68 48 -145 104 -173 123 -32 23 18 -34 144 -160 151 -153 192
-200 187 -214 -6 -15 -45 20 -206 181 -110 110 -200 197 -200 193 0 -4 54 -84
121 -178 66 -95 119 -173 117 -176 -12 -11 -97 -19 -125 -12 -41 11 -53 33
-88 168 -32 125 -54 178 -85 205 l-23 20 16 -30 c24 -48 35 -103 46 -223 11
-135 35 -186 107 -228 57 -34 154 -42 234 -20 30 8 57 13 59 10 2 -2 -6 -29
-18 -60 -52 -136 -144 -209 -261 -208 -41 0 -77 7 -97 17 -38 20 -66 66 -53
87 7 12 13 11 33 -8 15 -14 36 -22 60 -22 31 0 41 5 57 33 27 43 26 89 -3 123
-32 37 -125 46 -173 16 -84 -53 -87 -220 -6 -305 50 -53 96 -69 181 -65 168 8
287 107 356 293 10 27 50 -91 67 -197 12 -74 23 -91 38 -57 4 8 12 24 18 36 7
13 12 32 12 43 0 24 -2 24 51 0 43 -19 129 -28 129 -12 0 4 -18 15 -39 25 -21
9 -71 45 -111 79 -40 33 -70 53 -67 44 10 -25 29 -148 24 -153 -3 -2 -13 31
-22 74 -10 43 -28 102 -41 132 l-24 54 103 -100 c110 -106 192 -157 208 -132
16 25 10 99 -12 140 -11 23 -19 42 -17 44 2 1 24 12 49 23 25 12 52 28 59 37
11 13 7 15 -31 15 -48 1 -168 21 -238 40 l-43 11 63 30 c123 59 192 135 229
258 24 77 25 106 4 168 -42 127 -193 191 -312 132z m177 -673 l86 -14 -60 -1
c-33 0 -76 3 -95 9 -34 10 -33 9 31 -58 74 -75 112 -127 107 -143 -2 -6 -18
12 -37 40 -28 44 -80 96 -196 195 l-30 25 54 -20 c29 -11 92 -26 140 -33z"/>
<path d="M2650 9295 l0 -25 4860 0 4860 0 0 25 0 25 -4860 0 -4860 0 0 -25z"/>
<path d="M2573 9274 c-8 -22 18 -37 36 -20 7 8 10 19 7 25 -10 16 -36 13 -43
-5z"/>
<path d="M12414 9279 c-3 -6 0 -17 7 -25 18 -17 44 -2 36 20 -7 18 -33 21 -43
5z"/>
<path d="M2586 9192 c-9 -14 12 -35 28 -29 23 9 20 37 -3 37 -11 0 -22 -4 -25
-8z"/>
<path d="M12400 9185 c0 -21 30 -31 40 -14 11 17 3 29 -21 29 -10 0 -19 -7
-19 -15z"/>
<path d="M2574 9105 c-4 -9 -2 -21 4 -27 15 -15 44 -1 40 19 -4 23 -36 29 -44
8z"/>
<path d="M12414 9105 c-4 -9 -2 -21 4 -27 15 -15 44 -1 40 19 -4 23 -36 29
-44 8z"/>
<path d="M2537 9026 c-8 -20 20 -43 35 -28 14 14 3 42 -16 42 -7 0 -16 -6 -19
-14z"/>
<path d="M12453 9024 c-3 -8 -1 -20 5 -26 15 -15 43 8 35 28 -7 19 -32 18 -40
-2z"/>
<path d="M2480 8949 c0 -25 33 -22 38 4 2 12 -3 17 -17 17 -15 0 -21 -6 -21
-21z"/>
<path d="M12512 8953 c5 -26 38 -29 38 -4 0 15 -6 21 -21 21 -14 0 -19 -5 -17
-17z"/>
<path d="M2410 8920 c-18 -11 -4 -42 17 -38 10 2 19 10 21 19 4 19 -19 31 -38
19z"/>
<path d="M12590 8920 c-18 -11 -4 -42 17 -38 10 2 19 10 21 19 4 19 -19 31
-38 19z"/>
<path d="M2320 8840 c0 -13 7 -20 20 -20 13 0 20 7 20 20 0 13 -7 20 -20 20
-13 0 -20 -7 -20 -20z"/>
<path d="M12670 8840 c0 -13 7 -20 20 -20 13 0 20 7 20 20 0 13 -7 20 -20 20
-13 0 -20 -7 -20 -20z"/>
<path d="M2311 8766 c-14 -17 -7 -36 14 -36 22 0 29 20 13 36 -13 13 -16 13
-27 0z"/>
<path d="M12691 8766 c-14 -17 -7 -36 14 -36 22 0 29 20 13 36 -13 13 -16 13
-27 0z"/>
<path d="M2276 8693 c-3 -4 -6 -15 -6 -25 0 -24 33 -21 38 3 3 17 -21 33 -32
22z"/>
<path d="M12731 8690 c-17 -10 -7 -40 14 -40 8 0 15 9 15 19 0 24 -12 32 -29
21z"/>
<path d="M2213 8614 c-9 -23 13 -40 32 -24 12 10 13 16 4 26 -15 18 -28 18
-36 -2z"/>
<path d="M12781 8616 c-9 -10 -8 -16 4 -26 19 -16 41 1 32 24 -8 20 -21 20
-36 2z"/>
<path d="M2140 8550 c0 -13 7 -20 20 -20 13 0 20 7 20 20 0 13 -7 20 -20 20
-13 0 -20 -7 -20 -20z"/>
<path d="M12850 8550 c0 -13 7 -20 20 -20 13 0 20 7 20 20 0 13 -7 20 -20 20
-13 0 -20 -7 -20 -20z"/>
<path d="M2060 8510 c0 -13 7 -20 20 -20 13 0 20 7 20 20 0 13 -7 20 -20 20
-13 0 -20 -7 -20 -20z"/>
<path d="M12930 8510 c0 -13 7 -20 20 -20 13 0 20 7 20 20 0 13 -7 20 -20 20
-13 0 -20 -7 -20 -20z"/>
<path d="M1975 8490 c-4 -7 -3 -16 3 -22 14 -14 45 -2 40 15 -6 16 -34 21 -43
7z"/>
<path d="M13015 8490 c-4 -7 -3 -16 3 -22 14 -14 45 -2 40 15 -6 16 -34 21
-43 7z"/>
<path d="M1885 8470 c-4 -7 -3 -16 3 -22 14 -14 45 -2 40 15 -6 16 -34 21 -43
7z"/>
<path d="M13105 8470 c-4 -7 -3 -16 3 -22 14 -14 45 -2 40 15 -6 16 -34 21
-43 7z"/>
<path d="M1790 8455 c0 -21 30 -31 40 -14 11 17 3 29 -21 29 -10 0 -19 -7 -19
-15z"/>
<path d="M13196 8462 c-9 -14 12 -35 28 -29 23 9 20 37 -3 37 -11 0 -22 -4
-25 -8z"/>
<path d="M1575 8344 c-17 -92 -68 -140 -122 -115 -21 10 -28 9 -34 -1 -14 -21
-10 -44 10 -62 18 -16 18 -18 1 -52 -10 -19 -24 -41 -30 -49 -9 -11 -5 -15 24
-21 47 -8 82 1 112 31 33 33 30 19 -8 -45 -42 -69 -102 -115 -170 -129 -99
-22 -187 9 -214 76 -33 78 17 163 97 163 l42 0 -27 -25 c-14 -13 -26 -33 -26
-45 0 -25 42 -70 65 -70 23 0 65 45 65 71 0 75 -98 148 -181 134 -56 -10 -113
-62 -129 -119 -17 -62 1 -136 46 -186 40 -44 42 -58 13 -94 -30 -38 -71 -56
-129 -56 -98 0 -139 45 -148 161 -7 97 16 164 78 232 77 84 144 119 315 163
78 20 83 22 35 17 -79 -8 -215 -49 -282 -85 -171 -91 -264 -284 -213 -439 26
-77 103 -152 180 -175 140 -40 254 21 271 146 l6 47 54 6 c113 12 217 84 269
188 51 100 77 248 59 338 -9 41 -20 39 -29 -5z"/>
<path d="M13426 8349 c-18 -90 8 -238 59 -338 52 -104 156 -176 269 -188 l54
-6 6 -47 c17 -125 131 -186 271 -146 77 23 154 98 180 175 51 155 -42 348
-213 439 -67 36 -203 77 -282 85 -48 5 -43 3 35 -17 171 -44 238 -79 315 -163
62 -68 85 -135 78 -232 -9 -116 -50 -161 -148 -161 -58 0 -99 18 -129 56 -29
36 -27 50 13 94 45 50 63 124 46 186 -16 57 -73 109 -129 119 -83 14 -181 -59
-181 -134 0 -26 42 -71 65 -71 23 0 65 45 65 70 0 12 -12 32 -26 45 l-27 25
42 0 c80 0 130 -85 97 -163 -27 -67 -115 -98 -214 -76 -68 14 -128 60 -169
129 -39 64 -42 78 -9 45 30 -30 65 -39 112 -31 29 6 33 10 24 21 -6 8 -20 30
-30 49 -17 34 -17 36 1 52 20 18 24 41 10 62 -6 10 -13 11 -34 1 -54 -25 -105
23 -122 115 -9 44 -20 46 -29 5z"/>
<path d="M1644 8325 c-7 -18 3 -35 21 -35 21 0 28 19 15 35 -16 19 -29 19 -36
0z"/>
<path d="M13310 8325 c-10 -11 -10 -19 -2 -27 15 -15 44 -2 40 19 -4 23 -22
27 -38 8z"/>
<path d="M1644 8235 c-7 -18 3 -35 21 -35 18 0 26 25 12 39 -15 15 -27 14 -33
-4z"/>
<path d="M13311 8226 c-9 -10 -8 -16 4 -26 19 -16 41 1 32 24 -8 20 -21 20
-36 2z"/>
<path d="M1630 8130 c0 -13 7 -20 20 -20 13 0 20 7 20 20 0 13 -7 20 -20 20
-13 0 -20 -7 -20 -20z"/>
<path d="M13320 8120 c0 -13 7 -20 20 -20 13 0 20 7 20 20 0 13 -7 20 -20 20
-13 0 -20 -7 -20 -20z"/>
<path d="M1612 8057 c-15 -17 1 -42 23 -33 18 6 17 37 -1 43 -6 2 -16 -2 -22
-10z"/>
<path d="M13344 8035 c-4 -9 -2 -21 4 -27 15 -15 44 -1 40 19 -4 23 -36 29
-44 8z"/>
<path d="M1575 7970 c-4 -7 -3 -16 3 -22 14 -14 45 -2 40 15 -6 16 -34 21 -43
7z"/>
<path d="M13383 7944 c-9 -23 13 -40 32 -24 12 10 13 16 4 26 -15 18 -28 18
-36 -2z"/>
<path d="M1530 7895 c-10 -11 -10 -19 -2 -27 15 -15 44 -2 40 19 -4 23 -22 27
-38 8z"/>
<path d="M13435 7860 c-4 -7 -3 -16 3 -22 14 -14 45 -2 40 15 -6 16 -34 21
-43 7z"/>
<path d="M1471 7840 c-17 -10 -7 -40 13 -40 7 0 16 6 19 14 8 19 -15 37 -32
26z"/>
<path d="M1385 7790 c-4 -7 -3 -16 3 -22 14 -14 45 -2 40 15 -6 16 -34 21 -43
7z"/>
<path d="M13504 7789 c-9 -15 12 -33 30 -26 9 4 16 13 16 22 0 17 -35 21 -46
4z"/>
<path d="M1303 7764 c-8 -21 13 -42 28 -27 13 13 5 43 -11 43 -6 0 -13 -7 -17
-16z"/>
<path d="M13601 7746 c-14 -17 -7 -36 14 -36 22 0 29 20 13 36 -13 13 -16 13
-27 0z"/>
<path d="M13693 7714 c-3 -8 -1 -20 5 -26 15 -15 43 8 35 28 -7 19 -32 18 -40
-2z"/>
<path d="M1243 7674 c-3 -8 -1 -20 5 -26 15 -15 43 8 35 28 -7 19 -32 18 -40
-2z"/>
<path d="M13713 7654 c-7 -18 11 -39 26 -30 17 11 13 46 -4 46 -9 0 -18 -7
-22 -16z"/>
<path d="M1200 7590 c0 -13 7 -20 20 -20 13 0 20 7 20 20 0 13 -7 20 -20 20
-13 0 -20 -7 -20 -20z"/>
<path d="M883 7564 c-9 -23 13 -40 32 -24 12 10 13 16 4 26 -15 18 -28 18 -36
-2z"/>
<path d="M982 7563 c5 -26 38 -29 38 -4 0 15 -6 21 -21 21 -14 0 -19 -5 -17
-17z"/>
<path d="M13760 7561 c0 -15 6 -21 21 -21 25 0 22 33 -4 38 -12 2 -17 -3 -17
-17z"/>
<path d="M1080 7540 c0 -13 7 -20 20 -20 13 0 20 7 20 20 0 13 -7 20 -20 20
-13 0 -20 -7 -20 -20z"/>
<path d="M1143 7534 c-4 -11 1 -22 13 -31 10 -8 17 -17 14 -21 -3 -4 5 -8 18
-10 25 -4 32 25 8 34 -8 3 -16 14 -19 25 -6 23 -25 25 -34 3z"/>
<path d="M14003 7514 c-8 -21 13 -42 28 -27 13 13 5 43 -11 43 -6 0 -13 -7
-17 -16z"/>
<path d="M14087 7516 c-8 -20 20 -43 35 -28 14 14 3 42 -16 42 -7 0 -16 -6
-19 -14z"/>
<path d="M13831 7497 c-9 -11 -8 -17 4 -27 9 -7 14 -19 11 -26 -6 -16 19 -38
34 -29 14 9 13 32 -2 42 -7 4 -13 17 -13 27 0 24 -18 31 -34 13z"/>
<path d="M13921 7497 c-14 -17 3 -41 23 -34 9 4 16 13 16 21 0 19 -26 28 -39
13z"/>
<path d="M1242 7427 c-15 -17 1 -42 23 -33 18 6 17 37 -1 43 -6 2 -16 -2 -22
-10z"/>
<path d="M13790 7370 c0 -13 7 -20 20 -20 13 0 20 7 20 20 0 13 -7 20 -20 20
-13 0 -20 -7 -20 -20z"/>
<path d="M925 7345 c-180 -73 -228 -282 -107 -463 66 -100 202 -179 367 -213
116 -24 155 -23 49 2 -283 65 -417 197 -401 398 6 81 21 116 62 141 39 24 123
27 165 5 32 -17 70 -61 70 -82 0 -8 -15 -33 -34 -55 -83 -97 -64 -243 38 -289
54 -24 90 -24 143 2 50 24 71 52 79 101 11 68 -66 110 -108 58 -25 -31 -23
-57 8 -85 l27 -25 -42 0 c-82 0 -133 89 -95 167 27 54 69 75 153 75 110 0 189
-50 241 -153 26 -50 25 -53 -4 -24 -30 30 -65 39 -112 31 -29 -6 -33 -10 -24
-21 6 -8 20 -30 30 -49 17 -34 17 -36 -1 -52 -20 -18 -24 -41 -10 -62 6 -10
13 -11 34 -1 54 25 105 -23 122 -115 9 -44 20 -46 29 -5 18 91 -10 246 -60
338 -32 60 -85 115 -138 145 -47 27 -138 51 -166 43 -16 -4 -20 0 -20 21 0 84
-46 152 -117 176 -64 22 -108 20 -178 -9z"/>
<path d="M13915 7346 c-60 -27 -105 -99 -105 -166 0 -26 -3 -27 -61 -33 -76
-7 -156 -45 -203 -97 -91 -100 -145 -291 -120 -419 9 -41 20 -39 29 5 17 92
68 140 122 115 21 -10 28 -9 34 1 14 21 10 44 -10 62 -18 16 -18 18 -1 52 10
19 23 41 29 48 9 11 6 15 -11 20 -43 11 -75 6 -112 -19 l-36 -25 15 31 c25 47
85 108 129 132 55 29 178 31 219 4 34 -22 67 -74 67 -105 0 -60 -57 -122 -112
-122 -36 0 -39 8 -12 35 30 30 30 55 1 83 -31 30 -61 28 -87 -5 -43 -55 -1
-137 86 -167 96 -32 191 29 209 135 9 51 -9 110 -51 165 -36 46 -36 48 -20 80
36 77 173 95 243 32 50 -46 56 -203 10 -294 -57 -113 -211 -203 -407 -237 -22
-4 -21 -4 6 -6 48 -2 181 36 262 74 276 131 341 470 113 598 -63 36 -175 47
-226 23z"/>
<path d="M1283 7334 c-8 -22 18 -37 36 -20 7 8 10 19 7 25 -10 16 -36 13 -43
-5z"/>
<path d="M13750 7290 c0 -13 7 -20 20 -20 13 0 20 7 20 20 0 13 -7 20 -20 20
-13 0 -20 -7 -20 -20z"/>
<path d="M1303 7274 c-8 -22 18 -37 36 -20 7 8 10 19 7 25 -10 16 -36 13 -43
-5z"/>
<path d="M1400 7240 c0 -13 7 -20 20 -20 13 0 20 7 20 20 0 13 -7 20 -20 20
-13 0 -20 -7 -20 -20z"/>
<path d="M13684 7219 c-9 -15 12 -33 30 -26 9 4 16 13 16 22 0 17 -35 21 -46
4z"/>
<path d="M1486 7202 c-9 -14 12 -35 28 -29 23 9 20 37 -3 37 -11 0 -22 -4 -25
-8z"/>
<path d="M13603 7194 c-7 -20 17 -37 34 -23 15 13 6 39 -13 39 -8 0 -17 -7
-21 -16z"/>
<path d="M13530 7139 c0 -14 5 -19 17 -17 26 5 29 38 4 38 -15 0 -21 -6 -21
-21z"/>
<path d="M1566 7143 c-14 -15 -5 -43 14 -43 13 0 20 7 20 19 0 19 -23 35 -34
24z"/>
<path d="M13465 7090 c-4 -7 -3 -16 3 -22 14 -14 45 -2 40 15 -6 16 -34 21
-43 7z"/>
<path d="M1613 7044 c-8 -22 18 -37 36 -20 7 8 10 19 7 25 -10 16 -36 13 -43
-5z"/>
<path d="M13423 7014 c-8 -21 13 -42 28 -27 13 13 5 43 -11 43 -6 0 -13 -7
-17 -16z"/>
<path d="M1653 6954 c-7 -18 11 -39 26 -30 17 11 13 46 -4 46 -9 0 -18 -7 -22
-16z"/>
<path d="M13386 6932 c-9 -14 12 -35 28 -29 23 9 20 37 -3 37 -11 0 -22 -4
-25 -8z"/>
<path d="M1681 6871 c-17 -11 -7 -41 13 -41 22 0 30 20 15 36 -9 8 -19 10 -28
5z"/>
<path d="M13371 6847 c-14 -17 3 -41 23 -34 9 4 16 13 16 21 0 19 -26 28 -39
13z"/>
<path d="M1684 6769 c-3 -6 0 -17 7 -25 18 -17 44 -2 36 20 -7 18 -33 21 -43
5z"/>
<path d="M13361 6756 c-14 -17 -7 -36 14 -36 22 0 29 20 13 36 -13 13 -16 13
-27 0z"/>
<path d="M1690 6660 c0 -13 7 -20 20 -20 13 0 20 7 20 20 0 13 -7 20 -20 20
-13 0 -20 -7 -20 -20z"/>
<path d="M13361 6670 c-17 -10 -7 -40 13 -40 7 0 16 6 19 14 8 19 -15 37 -32
26z"/>
<path d="M1793 6534 c-7 -20 17 -37 34 -23 15 13 6 39 -13 39 -8 0 -17 -7 -21
-16z"/>
<path d="M13201 6537 c-14 -17 3 -41 23 -34 9 4 16 13 16 21 0 19 -26 28 -39
13z"/>
<path d="M1883 6524 c-8 -22 18 -37 36 -20 7 8 10 19 7 25 -10 16 -36 13 -43
-5z"/>
<path d="M13109 6524 c-9 -11 -9 -18 -1 -26 14 -14 42 -3 42 16 0 20 -27 27
-41 10z"/>
<path d="M1977 6514 c-16 -16 -6 -35 16 -32 12 2 22 10 22 18 0 16 -26 25 -38
14z"/>
<path d="M13020 6505 c-10 -11 -10 -19 -2 -27 15 -15 44 -2 40 19 -4 23 -22
27 -38 8z"/>
<path d="M2060 6470 c0 -13 7 -20 20 -20 13 0 20 7 20 20 0 13 -7 20 -20 20
-13 0 -20 -7 -20 -20z"/>
<path d="M12933 6474 c-8 -21 13 -42 28 -27 13 13 5 43 -11 43 -6 0 -13 -7
-17 -16z"/>
<path d="M2140 6430 c0 -13 7 -20 20 -20 13 0 20 7 20 20 0 13 -7 20 -20 20
-13 0 -20 -7 -20 -20z"/>
<path d="M12853 6434 c-8 -21 13 -42 28 -27 13 13 5 43 -11 43 -6 0 -13 -7
-17 -16z"/>
<path d="M2213 6384 c-9 -23 13 -40 32 -24 12 10 13 16 4 26 -15 18 -28 18
-36 -2z"/>
<path d="M12780 6370 c0 -13 7 -20 20 -20 13 0 20 7 20 20 0 13 -7 20 -20 20
-13 0 -20 -7 -20 -20z"/>
<path d="M2267 6316 c-8 -20 20 -43 35 -28 14 14 3 42 -16 42 -7 0 -16 -6 -19
-14z"/>
<path d="M12722 6303 c5 -26 38 -29 38 -4 0 15 -6 21 -21 21 -14 0 -19 -5 -17
-17z"/>
<path d="M2303 6234 c-8 -22 18 -37 36 -20 7 8 10 19 7 25 -10 16 -36 13 -43
-5z"/>
<path d="M12685 6230 c-4 -7 -3 -16 3 -22 14 -14 45 -2 40 15 -6 16 -34 21
-43 7z"/>
<path d="M2320 6140 c0 -13 7 -20 20 -20 13 0 20 7 20 20 0 13 -7 20 -20 20
-13 0 -20 -7 -20 -20z"/>
<path d="M12673 6144 c-8 -21 13 -42 28 -27 13 13 5 43 -11 43 -6 0 -13 -7
-17 -16z"/>
<path d="M2404 6085 c-4 -9 -2 -21 4 -27 15 -15 44 -1 40 19 -4 23 -36 29 -44
8z"/>
<path d="M12585 6080 c-4 -7 -3 -16 3 -22 14 -14 45 -2 40 15 -6 16 -34 21
-43 7z"/>
<path d="M2482 6028 c2 -12 10 -23 18 -23 22 0 19 39 -3 43 -15 3 -18 -1 -15
-20z"/>
<path d="M12510 6020 c0 -13 7 -20 20 -20 13 0 20 7 20 20 0 13 -7 20 -20 20
-13 0 -20 -7 -20 -20z"/>
<path d="M2541 5977 c-14 -17 3 -41 23 -34 9 4 16 13 16 21 0 19 -26 28 -39
13z"/>
<path d="M12453 5964 c-3 -8 -1 -20 5 -26 15 -15 43 8 35 28 -7 19 -32 18 -40
-2z"/>
<path d="M2579 5894 c-9 -11 -9 -18 -1 -26 14 -14 42 -3 42 16 0 20 -27 27
-41 10z"/>
<path d="M12414 5889 c-3 -6 0 -17 8 -25 13 -13 16 -13 27 0 7 8 10 20 6 26
-8 13 -32 13 -41 -1z"/>
<path d="M2587 5806 c-8 -19 15 -37 32 -26 17 10 7 40 -13 40 -7 0 -16 -6 -19
-14z"/>
<path d="M12411 5810 c-17 -10 -7 -40 13 -40 7 0 16 6 19 14 8 19 -15 37 -32
26z"/>
<path d="M2575 5720 c-4 -7 -3 -16 3 -22 14 -14 45 -2 40 15 -6 16 -34 21 -43
7z"/>
<path d="M2650 5705 l0 -25 4860 0 4860 0 0 25 0 25 -4860 0 -4860 0 0 -25z"/>
<path d="M12417 5717 c-3 -8 -2 -20 3 -27 11 -18 42 -4 38 17 -4 22 -34 29
-41 10z"/>
</g>
</svg>
